<?xml version="1.0" encoding="utf-8"?>
<!-- Generator: Adobe Illustrator 28.0.0, SVG Export Plug-In . SVG Version: 6.00 Build 0)  -->
<svg version="1.1" id="Layer_1" xmlns="http://www.w3.org/2000/svg" xmlns:xlink="http://www.w3.org/1999/xlink" x="0px" y="0px"
	 viewBox="0 0 800 250" style="enable-background:new 0 0 800 250;" xml:space="preserve">
<style type="text/css">
	.st0{fill:#0C1220;}
	.st1{fill:url(#SVGID_1_);}
	.st2{fill:#D15E59;}
	.st3{fill:url(#SVGID_00000098943709085078460220000001921744256983848639_);}
</style>
<g>
	<path class="st0" d="M388.2,121.4c-3.9-3.4-5.8-8.6-5.8-15.7c0-3.6,0.5-7.4,1.5-11.2c1-3.9,2.4-7.8,4.1-11.7l0.7,0.7
		c-2.4,7-3.6,12.9-3.6,17.8c0,3.7,0.9,6.8,2.6,9.3c1.7,2.6,4,4.5,6.9,5.8c2.9,1.3,5.9,1.9,9.2,1.9c5.1,0,9.8-1.1,14-3.1
		c4.2-2.1,7.2-4.9,9-8.4c-1.1-4.9-2-8.3-2.5-10.2c-0.5-1.8-1.4-4.9-2.8-9.3l6.2-5l0.5,1.7c0.9,3.2,1.9,5.8,2.8,8.1s2.1,4,3.3,5.3
		s2.6,2,4.1,2c2.3,0,4.6-1,7-3s4.2-5.4,5.6-10.2l0.2-0.6l1.5-0.1c-0.3,2.3-0.8,4.5-1.4,6.5c2.2,2.9,4.6,5,7.1,6.4
		c2.6,1.4,5.5,2.2,8.7,2.5c0-1.7-0.3-3.2-1-4.5c-0.7-1.3-1.6-2.8-2.8-4.3c-1-1.2-1.7-2.3-2.2-3.2c-0.5-0.9-0.7-1.9-0.7-2.8
		c0-1.2,0.4-2.5,1.1-4s1.7-2.6,2.9-3.3c0.8,1.9,1.8,3.6,3.2,5.1c1.4,1.5,2.9,2.9,4.6,4.1l-2.5,2.8c0.3,5.9-0.5,10.2-2.4,12.8
		s-4.3,3.9-7.1,3.9c-1.9,0-3.9-0.7-6-2.1c-2.1-1.4-4.1-3.4-6-5.9c-3,5.3-6.7,8-11.1,8c-3.4,0-6.1-1.7-8.3-5l-2.4,12.2
		c-2.9,3.8-6.2,6.7-10.1,8.7s-8.3,3-13.4,3C397,126.5,392.1,124.8,388.2,121.4z"/>
	<path class="st0" d="M489,126.8c-1.3-0.7-2.8-1.8-4.5-3.4c-1.3-1.2-2.6-2.2-3.8-3.1c-1.2-0.8-2.6-1.6-4.3-2.2l0.3-1.1
		c5.2,2.1,9.4,3.1,12.4,3.1c4.1,0,7.7-0.8,10.7-2.4c3-1.6,5.4-3.6,7.3-6s3.2-4.8,4.1-7.3c-0.9-4.3-2.2-7.8-4-10.6s-3.6-4.8-5.5-6
		c-2-1.2-3.8-1.8-5.4-1.8c-1.4,0-2.8,0.4-4,1.2s-2.3,1.8-3.1,2.9c-0.8,1.1-1.2,2.1-1.2,3c0,1.5,0.8,2.8,2.2,3.9
		c1.5,1.1,3.9,1.6,7.1,1.6H515l0.8,1.2v5.8l-0.8,1.2h-17.6c-3.2,0-5.7-1-7.7-3.1s-3-4.6-3-7.5s0.6-5.8,1.7-8.5s2.7-5,4.7-6.8
		s4.3-2.6,6.9-2.6c2.6,0,4.9,1.1,6.8,3.3c1.9,2.2,3.4,5.1,4.4,8.7c1,3.6,1.5,7.3,1.5,11.4c0,4.5-0.9,8.7-2.6,12.8
		c-1.7,4.1-4,7.3-6.9,9.8c-2.9,2.5-6,3.7-9.3,3.7C492,127.8,490.3,127.5,489,126.8z"/>
	<path class="st0" d="M533.3,98.6l0.8,1.2v5.8l-0.8,1.2H515l-0.8-1.2v-5.8l0.8-1.2H533.3z"/>
	<path class="st0" d="M551.7,98.6l0.8,1.2v5.8l-0.8,1.2h-18.3l-0.8-1.2v-5.8l0.8-1.2H551.7z"/>
	<path class="st0" d="M565.3,100.9c-1.5,1.9-3.4,3.4-5.6,4.4c-2.2,1-4.7,1.5-7.4,1.5h-0.7l-0.8-1.2v-5.8l0.8-1.2h1.2
		c3.4,0,6-0.3,8-0.8c2-0.5,3.6-1.6,4.9-3.1s2.3-3.9,3-7.1l1.5-0.2c-0.3,2.8-0.9,5.3-1.5,7.4c0.5,1.4,1.3,2.6,2.6,3.4
		s2.7,1.2,4.3,1.2c2.3,0,4.6-1,7-3s4.2-5.4,5.6-10.2l0.2-0.6l1.5-0.1c-0.4,2.9-1.2,6-2.2,9.3c0.4,1.6,1.2,2.8,2.2,3.7
		c1.1,0.8,2.4,1.2,4,1.2c2.3,0,4.1-0.6,5.2-1.8c1.1-1.2,1.9-2.8,2.3-5s0.8-5.7,1.1-10.4l1.6-0.1v2.8c0,3.6,0.4,6.3,1.1,8.3
		c0.8,1.9,1.9,3.3,3.4,4c1.5,0.7,3.5,1.1,6,1.1h0.3l0.8,1.2v5.8l-0.8,1.2h-0.9c-3.6,0-6.5-0.8-8.9-2.4c-2.4-1.6-3.6-4.3-3.6-8.2
		c-0.6,3.2-1.3,5.6-2.2,7.2c-0.9,1.7-1.8,2.8-2.9,3.4c-1.1,0.6-2.4,0.9-4,0.9c-1.7,0-3.4-0.4-5-1.3c-1.6-0.9-2.9-2.1-4-3.7
		c-2.6,3.3-5.7,5-9.2,5C570,107.6,567.1,105.4,565.3,100.9z"/>
	<path class="st0" d="M614,105.5v-5.8l0.8-1.2h31.9c17.6,0,31.2-0.8,41-2.4c9.8-1.6,14.6-4.2,14.6-7.8c-1-2.4-2.6-4.4-4.8-5.9
		c-2.2-1.5-4.8-2.6-7.8-3.3s-6.2-1-9.6-1c-5.5,0-13.3,0.4-23.3,1.1c-4,0.3-8.1,0.6-12.3,0.8c-4.2,0.2-7.9,0.3-11,0.3
		c-5.9,0-10.3-0.5-13.1-1.6c-2.8-1-4.2-2.8-4.2-5.2c0-3.8,2-7.8,6.1-11.9s8.8-7.5,14.4-10.2c5.6-2.7,10.3-4.1,14.3-4.1
		c3,0,4.7,0.8,5,2.4c0.3,1.6,0.1,3.7-0.8,6.2l-3.3-0.5c-3.9,0-8.4,0.8-13.5,2.3c-5.1,1.5-9.5,3.2-13.3,5.2s-5.7,3.3-5.7,4.3
		c0,0.8,0.5,1.5,1.5,2.3c1,0.8,2.4,1.4,4.2,1.9c1.8,0.5,3.7,0.8,5.8,0.8c6.7,0,12.3-0.1,17-0.3c4.7-0.2,10.5-0.6,17.6-1.1
		c6.5-0.6,11.7-0.9,15.5-0.9c4.5,0,8.5,0.9,12,2.7s6.2,4,8.1,6.6s2.9,5.1,2.9,7.4c0,1.7-0.4,3.7-1.2,5.9c-0.8,2.2-1.7,4.2-2.8,5.9
		c-1.1,1.7-2,2.8-2.7,3.1c-6.4,2.3-16.9,3.8-31.5,4.5c-14.6,0.6-31.3,0.9-50.1,0.9h-1L614,105.5z M703,97.8c1.6,0.5,3.5,0.8,5.6,0.8
		h1.2l0.8,1.2v5.8l-0.8,1.2H709c-2.7,0-5.2-0.5-7.5-1.6s-3.9-3.2-4.8-6.4l3.1-3.9C700.3,96.3,701.4,97.3,703,97.8z"/>
	<path class="st0" d="M709.1,105.5v-5.8l0.8-1.2h1.1c3,0,5.4-0.6,7-1.8c1.6-1.2,2.7-2.6,3.3-4.2s1.1-3.7,1.5-6.3l0.3-2.1l0.3-1.8
		l1.4-0.5l-0.2,2.6c-0.3,3.9,0.3,7.2,1.8,10c1.5,2.8,3.8,4.1,6.9,4.1l0.8,1.2v5.8l-0.8,1.2h-0.3c-1.5,0-3-0.2-4.5-0.5
		c-1.4-0.3-2.8-1.3-4.2-2.8c-1.3-1.5-2.3-3.8-2.8-6.9c-1,2.4-1.9,4.3-2.8,5.7c-0.9,1.4-2.1,2.5-3.5,3.3s-3.2,1.2-5.5,1.2
		L709.1,105.5z M711.8,117.3l5.1-5.1l5.1,5.1l-5.1,5.3L711.8,117.3z M720.4,117.3l5.1-5.1l5.1,5.1l-5.1,5.3L720.4,117.3z"/>
	<path class="st0" d="M732.6,105.5v-5.8l0.8-1.2h2.2c1,0,2.5-0.1,4.6-0.4c2.1-0.3,3.9-0.7,5.6-1.3c1.7-0.6,2.5-1.2,2.5-2
		c0-0.4-0.3-1-0.8-1.7c-0.5-0.7-1.3-1.7-2.5-2.9c-1.9-2-3.4-3.8-4.5-5.4c-1.1-1.6-1.7-3.1-1.7-4.5c0-1.6,0.4-2.8,1.3-3.7
		s2.2-1.9,3.9-3.1c0.8,2,1.8,3.7,3.2,5.2c1.4,1.4,3.1,2.9,5,4.3l-2.5,2.8c0.3,3.7,0.4,7,0,9.9s-1.6,5.4-3.8,7.6
		c-2.2,2.2-5.8,3.3-10.8,3.3h-1.7L732.6,105.5z M738.8,61.4l5.1-5.1l5.1,5.1l-5.1,5.3L738.8,61.4z"/>
	<path class="st0" d="M401.7,189.3c-0.9-0.3-1.7-0.8-2.3-1.7c-0.6-0.9-1.1-2.2-1.4-4c-0.2-1.2-0.4-2.9-0.7-4.9s-0.4-4-0.4-5.8
		c-2.3,0.4-4.7,1.1-7.2,2.1c-2.6,1-4.3,2.1-5.2,3.1c0.3,0.9,1,1.6,2.2,2.1c1.1,0.5,2.9,0.7,5.1,0.7c1,0,2.1-0.1,3.3-0.3
		s2.1-0.6,2.8-1l-1.6,4.8c-0.7,0.6-1.6,0.9-2.8,1.2c-1.2,0.3-2.3,0.4-3.3,0.4c-2.1,0-3.8-0.5-5-1.5c-1.3-1-1.9-2.4-1.9-4.1
		c0-0.7,0.3-1.6,0.8-2.7c0.5-1.1,1-1.8,1.3-2.1c1.2-1.4,2.9-2.7,5.1-4s4.4-2.3,6.4-3c0.1-1,0.2-1.9,0.5-2.6c0.3-0.7,0.7-1.4,1.3-2
		l2.2-2.1v17.4c0,1.5,0.1,2.6,0.3,3.3c0.2,0.7,0.6,1.2,1.2,1.5s1.4,0.4,2.6,0.4h0l0.5,0.8v3.7l-0.5,0.8h0
		C403.7,189.7,402.6,189.6,401.7,189.3z M389.4,157.9l3.2-3.2l3.2,3.2l-3.2,3.4L389.4,157.9z M394.8,157.9l3.2-3.2l3.2,3.2l-3.2,3.4
		L394.8,157.9z"/>
	<path class="st0" d="M416.8,184.5l0.5,0.8v3.7l-0.5,0.8h-11.7l-0.5-0.8v-3.7l0.5-0.8H416.8z"/>
	<path class="st0" d="M428.5,184.5l0.5,0.8v3.7l-0.5,0.8h-11.7l-0.5-0.8v-3.7l0.5-0.8H428.5z"/>
	<path class="st0" d="M440.2,184.5l0.5,0.8v3.7l-0.5,0.8h-11.7l-0.5-0.8v-3.7l0.5-0.8H440.2z"/>
	<path class="st0" d="M451.9,184.5l0.5,0.8v3.7l-0.5,0.8h-11.7l-0.5-0.8v-3.7l0.5-0.8H451.9z"/>
	<path class="st0" d="M463.6,184.5l0.5,0.8v3.7l-0.5,0.8h-11.7l-0.5-0.8v-3.7l0.5-0.8H463.6z"/>
	<path class="st0" d="M463.1,188.9v-3.7l0.5-0.8h0.7c1.9,0,3.4-0.4,4.5-1.1s1.7-1.6,2.1-2.7c0.4-1,0.7-2.4,1-4l0.2-1.3l0.2-1.1
		l0.9-0.3l-0.1,1.6c-0.2,2.5,0.2,4.6,1.1,6.4c0.9,1.8,2.4,2.6,4.4,2.6l0.5,0.8v3.7l-0.5,0.8h-0.2c-1,0-1.9-0.1-2.9-0.3
		c-0.9-0.2-1.8-0.8-2.7-1.8c-0.9-0.9-1.5-2.4-1.8-4.4c-0.6,1.5-1.2,2.8-1.8,3.6c-0.6,0.9-1.3,1.6-2.2,2.1c-0.9,0.5-2.1,0.7-3.5,0.7
		L463.1,188.9z M464.8,196.5l3.2-3.2l3.2,3.2l-3.2,3.4L464.8,196.5z M470.3,196.5l3.2-3.2l3.2,3.2l-3.2,3.4L470.3,196.5z"/>
	<path class="st0" d="M478.1,188.9v-3.7l0.5-0.8h0.7c1.9,0,3.4-0.4,4.5-1.1s1.7-1.6,2.1-2.7c0.4-1,0.7-2.4,1-4l0.2-1.3l0.2-1.1
		l0.9-0.3l-0.1,1.6c-0.2,2.5,0.2,4.6,1.1,6.4c0.9,1.8,2.4,2.6,4.4,2.6l0.5,0.8v3.7l-0.5,0.8h-0.2c-1,0-1.9-0.1-2.9-0.3
		c-0.9-0.2-1.8-0.8-2.7-1.8c-0.9-0.9-1.5-2.4-1.8-4.4c-0.6,1.5-1.2,2.8-1.8,3.6c-0.6,0.9-1.3,1.6-2.2,2.1c-0.9,0.5-2.1,0.7-3.5,0.7
		L478.1,188.9z M483.1,166.3l3.2-3.2l3.2,3.2l-3.2,3.4L483.1,166.3z"/>
	<path class="st0" d="M493.1,188.9v-3.7l0.5-0.8h0.4c5.2,0,8.9-0.5,10.9-1.6c2-1,3.1-2.2,3.1-3.5c0-0.8-0.3-1.6-0.9-2.5
		s-1.5-1.6-2.5-2.2s-2.1-0.9-3.2-0.9c-1.1,0-2.1,0.3-3,0.9s-1.5,1.3-1.9,2.1s-0.7,1.5-0.7,2.1c0,0.7,0.5,1.4,1.5,2.3
		c1,0.9,2.6,1.6,4.8,2.3s4.9,1,8.3,1h0.2l0.5,0.8v3.7l-0.5,0.8h-0.2c-2.6,0-5-0.4-7.4-1.1c-2.3-0.8-4.3-2-5.8-3.6s-2.2-3.6-2.2-6.1
		c0-1.4,0.4-2.9,1.1-4.6s1.7-3,2.9-4.1c1.2-1.1,2.4-1.6,3.7-1.6c1.2,0,2.2,0.5,3.2,1.5c1,1,1.7,2.3,2.2,3.9c0.5,1.6,0.8,3.2,0.8,4.8
		c0,2.1-0.7,4-2.1,5.7s-3.3,2.9-5.5,3.9c-2.3,0.9-4.7,1.4-7.2,1.4h-0.4L493.1,188.9z M496.8,160.8l3.2-3.2l3.2,3.2l-3.2,3.4
		L496.8,160.8z M502.2,160.8l3.2-3.2l3.2,3.2l-3.2,3.4L502.2,160.8z"/>
	<path class="st0" d="M510,188.9v-3.7l0.5-0.8h0.7c1.9,0,3.4-0.4,4.4-1.1c1-0.8,1.7-1.6,2.1-2.7c0.4-1,0.7-2.4,1-4l0.2-1.3l0.2-1.1
		l0.9-0.3l-0.1,1.6c-0.2,2.5,0.2,4.6,1.1,6.4c0.9,1.8,2.4,2.6,4.4,2.6l0.5,0.8v3.7l-0.5,0.8h-0.2c-1,0-1.9-0.1-2.9-0.3
		s-1.8-0.8-2.7-1.8c-0.9-0.9-1.5-2.4-1.8-4.4c-0.6,1.5-1.2,2.8-1.8,3.6c-0.6,0.9-1.3,1.6-2.2,2.1c-0.9,0.5-2.1,0.7-3.5,0.7
		L510,188.9z M512.4,166.3l3.2-3.2l3.2,3.2l-3.2,3.4L512.4,166.3z M517.9,166.3l3.2-3.2l3.2,3.2l-3.2,3.4L517.9,166.3z"/>
	<path class="st0" d="M525,188.9v-3.7l0.5-0.8h0.3c1.9,0,3.4-0.1,4.4-0.3c1-0.2,1.7-0.6,2.2-1.3c-0.2-4.8-0.4-9.5-0.6-14.1
		s-0.5-8.7-0.8-12.1c-0.2-1.6-0.1-3,0.2-4.1s1.2-2.1,2.6-2.9l1.7-0.9c0,1.3,0.2,2.5,0.6,3.6c0.4,1.1,0.9,2.1,1.5,2.9l-2,5.2v21.9
		c0,1.6-0.3,3-0.9,4.1c-0.6,1.1-1.7,2-3.1,2.6c-1.5,0.6-3.4,0.9-5.7,0.9h-0.3L525,188.9z"/>
	<path class="st0" d="M546,178.5c-0.1-4.8-0.2-9.4-0.5-13.8s-0.5-7.1-0.6-8.1c-0.3-1.5-0.2-2.9,0.1-4c0.3-1.2,1.2-2.2,2.7-3.1
		l1.7-0.9c0,1.3,0.2,2.5,0.6,3.6c0.4,1.1,0.9,2.1,1.5,2.9l-2.2,5.2v16.3c0,2.5-0.3,4.8-0.9,7.1c-0.6,2.2-1.4,4.4-2.3,6.7h-0.4
		C546,187.3,546,183.4,546,178.5z"/>
	<path class="st0" d="M573.6,198.2c-2.3-2.1-3.4-5.3-3.4-9.7c0-1.8,0.2-3.6,0.6-5.6c0.4-1.9,1-4.1,1.8-6.5l0.9,0.5
		c-0.8,2.9-1.3,5.4-1.3,7.6c0,3.7,0.9,6.5,2.8,8.5c1.9,2,4.7,3,8.4,3c3.4,0,6.3-0.6,8.5-1.9s3.6-3.1,4.3-5.4c0.2-2.5,0.2-6.1,0-10.6
		c-0.2-4.5-0.5-8.9-0.9-13.2c-0.4-4.3-0.7-7.1-0.9-8.3c-0.3-1.5-0.2-2.9,0.1-4c0.3-1.2,1.2-2.2,2.7-3.1l1.7-0.9
		c0,1.3,0.2,2.5,0.6,3.6c0.4,1.1,0.9,2.1,1.5,2.9l-2.2,5.2v9.7c0,1.9,0,4.1,0.1,6.5c0.1,2.6,0.1,4.7,0,6.2s-0.3,3.1-0.7,4.9
		s-1.1,3.9-2.2,6.3c-1.6,2.6-3.4,4.4-5.3,5.7s-4.5,1.8-7.8,1.8C579,201.3,575.9,200.3,573.6,198.2z"/>
	<path class="st0" d="M612.9,202.5c-0.8-0.5-1.8-1.2-2.9-2.2c-0.8-0.8-1.7-1.4-2.4-1.9c-0.8-0.5-1.7-1-2.8-1.4l0.2-0.7
		c3.3,1.3,6,2,7.9,2c2.6,0,4.9-0.5,6.8-1.6c1.9-1,3.5-2.3,4.6-3.9c1.2-1.5,2-3.1,2.6-4.6c-0.6-2.8-1.4-5-2.5-6.8
		c-1.1-1.8-2.3-3.1-3.5-3.8s-2.4-1.1-3.5-1.1c-0.9,0-1.8,0.3-2.6,0.8c-0.8,0.5-1.5,1.1-2,1.9c-0.5,0.7-0.7,1.4-0.7,1.9
		c0,0.9,0.5,1.8,1.4,2.5c1,0.7,2.5,1,4.6,1h11.2l0.5,0.8v3.7l-0.5,0.8h-11.3c-2,0-3.7-0.7-4.9-2s-1.9-2.9-1.9-4.8s0.4-3.7,1.1-5.4
		s1.7-3.2,3-4.3c1.3-1.1,2.8-1.7,4.4-1.7c1.7,0,3.1,0.7,4.4,2.1c1.2,1.4,2.2,3.2,2.8,5.5s1,4.7,1,7.2c0,2.9-0.5,5.6-1.7,8.2
		s-2.6,4.7-4.4,6.2c-1.8,1.6-3.8,2.4-5.9,2.4C614.8,203.2,613.8,202.9,612.9,202.5z"/>
	<path class="st0" d="M641.2,184.5l0.5,0.8v3.7l-0.5,0.8h-11.7l-0.5-0.8v-3.7l0.5-0.8H641.2z"/>
	<path class="st0" d="M652.9,184.5l0.5,0.8v3.7l-0.5,0.8h-11.7l-0.5-0.8v-3.7l0.5-0.8H652.9z"/>
	<path class="st0" d="M664.6,184.5l0.5,0.8v3.7l-0.5,0.8h-11.7l-0.5-0.8v-3.7l0.5-0.8H664.6z"/>
	<path class="st0" d="M676.3,184.5l0.5,0.8v3.7l-0.5,0.8h-11.7l-0.5-0.8v-3.7l0.5-0.8H676.3z"/>
	<path class="st0" d="M683.7,184.5c-0.3,1.3-0.9,2.5-2,3.6c-1.1,1.1-2.8,1.6-5,1.6h-0.3l-0.5-0.8v-3.7l0.5-0.8h0.3
		c1.5,0,2.8-0.2,3.6-0.5c0.9-0.3,1.6-1.1,2.2-2.5s0.9-3.4,1-6.1l0.7,5.1C684,181.9,683.9,183.2,683.7,184.5z M685.6,186.4
		c-1.5-2.2-2.2-5.9-2.2-10.9c0-2.1,0-4.2,0-6.4c0-6.8,0-12-0.1-15.6l3.7-3.6v21.9c0,2.9,0.1,5.2,0.3,6.9c0.2,1.7,0.7,3.1,1.5,4.2
		c0.8,1.1,2,1.6,3.7,1.6l0.5,0.8v3.7l-0.5,0.8C689.3,189.7,687.1,188.6,685.6,186.4z"/>
	<path class="st0" d="M691.9,188.9v-3.7l0.5-0.8h0c1.9,0,3.7-0.2,5.3-0.5c1.6-0.3,3-0.7,4.3-1.2s2.7-1.2,4.5-2
		c1.7-0.8,3.1-1.4,4.3-1.9c1.2-0.5,2.5-0.9,3.9-1.2c-2-0.4-3.8-0.9-5.2-1.4c-1.5-0.5-3.1-1.2-4.9-2.1c-1.5-0.7-2.7-1.2-3.5-1.5
		c-0.9-0.3-1.8-0.5-2.8-0.5c-1.3,0-2.3,0.4-3,1.1c-0.7,0.8-1.1,1.9-1.1,3.3l-0.7,0.1c-0.2-3.5,0.2-6,1.1-7.4s2.3-2.2,4.2-2.2
		c1.3,0,2.7,0.3,4.1,0.8c1.4,0.5,3.2,1.3,5.4,2.3c2.8,1.3,5,2.2,6.7,2.7c1.7,0.5,3.3,0.5,4.9,0.1c0,1.3-0.1,2.3-0.4,2.9
		s-0.7,1.2-1.3,1.6c-0.6,0.4-1.5,0.8-2.8,1.3c-1.7,0.7-3.2,1.4-4.5,2.2c-1.3,0.8-2.8,1.9-4.4,3.2c-1.6,1.2-2.9,2.2-4.1,3
		c-1.2,0.7-2.5,1.4-4.2,1.8c-1.7,0.5-3.6,0.7-5.8,0.7h0L691.9,188.9z M718.3,188.1c-1.6-1-2.9-2.4-3.8-4.1s-1.4-3.5-1.5-5.4l1.3-0.7
		c0.2,1.1,0.6,2.1,1.5,3.2c0.8,1,1.9,1.8,3.3,2.4c1.4,0.6,3,0.9,4.7,0.9h0.2l0.5,0.8v3.7l-0.5,0.8
		C721.8,189.7,719.9,189.2,718.3,188.1z"/>
	<path class="st0" d="M731.3,184.5c-0.3,1.3-0.9,2.5-2,3.6c-1.1,1.1-2.8,1.6-5,1.6H724l-0.5-0.8v-3.7l0.5-0.8h0.3
		c1.5,0,2.8-0.2,3.6-0.5c0.9-0.3,1.6-1.1,2.2-2.5s0.9-3.4,1-6.1l0.7,5.1C731.7,181.9,731.6,183.2,731.3,184.5z M733.3,186.4
		c-1.5-2.2-2.2-5.9-2.2-10.9c0-2.1,0-4.2,0-6.4c0-6.8,0-12-0.1-15.6l3.7-3.6v21.9c0,2.9,0.1,5.2,0.3,6.9c0.2,1.7,0.7,3.1,1.5,4.2
		c0.8,1.1,2,1.6,3.7,1.6l0.5,0.8v3.7l-0.5,0.8C737,189.7,734.8,188.6,733.3,186.4z"/>
	<path class="st0" d="M739.6,188.9v-3.7l0.5-0.8h0.3c1.9,0,3.4-0.1,4.4-0.3c1-0.2,1.7-0.6,2.2-1.3c-0.2-4.8-0.4-9.5-0.6-14.1
		s-0.5-8.7-0.8-12.1c-0.2-1.6-0.1-3,0.2-4.1s1.2-2.1,2.6-2.9l1.7-0.9c0,1.3,0.2,2.5,0.6,3.6c0.4,1.1,0.9,2.1,1.5,2.9l-2,5.2v21.9
		c0,1.6-0.3,3-0.9,4.1c-0.6,1.1-1.7,2-3.1,2.6c-1.5,0.6-3.4,0.9-5.7,0.9h-0.3L739.6,188.9z"/>
</g>
<g>
	
		<linearGradient id="SVGID_1_" gradientUnits="userSpaceOnUse" x1="256.1986" y1="126.9376" x2="37.4849" y2="126.9376" gradientTransform="matrix(1 0 0 -1 0 252)">
		<stop  offset="0" style="stop-color:#F7B135"/>
		<stop  offset="1" style="stop-color:#E62577"/>
	</linearGradient>
	<path class="st1" d="M255.1,113.8L132.5,43c-22.4-12.9-44.2-14.6-61.4-4.7S44.5,68,44.5,93.8v62.3c0,26,9.5,45.7,26.6,55.6
		c7.4,4.2,15.6,6.4,24.3,6.4c11.5,0,24-3.7,36.7-11l61.8-35.7l-25.8-14.9l-48.9,28.2c-13.7,7.9-26.5,9.6-35.2,4.6
		c-8.7-5-13.7-17.2-13.7-33.3V93.8c0-16,5-28.1,13.7-33.1c8.7-5,21.7-3.3,35.5,4.7l122.6,70.8c6.2,3.6,14.1,1.4,17.6-4.7
		C263.4,125.3,261.3,117.4,255.1,113.8z"/>
	<polygon class="st2" points="168.1,156.6 142.3,171.5 168.1,186.4 194,171.5 	"/>
	
		<linearGradient id="SVGID_00000131347386460137218420000003234620086048229509_" gradientUnits="userSpaceOnUse" x1="345.1762" y1="127.0517" x2="127.0178" y2="127.0517" gradientTransform="matrix(1 0 0 -1 0 252)">
		<stop  offset="0" style="stop-color:#F7B135"/>
		<stop  offset="1" style="stop-color:#E62577"/>
	</linearGradient>
	<path style="fill:url(#SVGID_00000131347386460137218420000003234620086048229509_);" d="M316.8,38.2c-17.1-9.9-38.7-8.2-61,4.6
		L194,78.5l25.8,14.9l48.9-28.2c13.7-7.9,26.5-9.6,35.2-4.6c8.7,5,13.7,17.2,13.7,33.3v62.3c0,16-5,28.1-13.7,33.1
		c-8.7,5-21.7,3.3-35.5-4.7l-122.6-70.8c-6.2-3.6-14.1-1.4-17.6,4.7c-3.6,6.2-1.4,14.1,4.7,17.6L255.4,207
		c12.8,7.4,25.3,11.1,37,11.1c8.8,0,17-2.1,24.4-6.4c17.2-9.9,26.6-29.6,26.6-55.5V93.8C343.4,67.9,333.9,48.1,316.8,38.2z"/>
	<polygon class="st2" points="245.6,78.5 219.8,63.6 194,78.5 219.8,93.4 	"/>
</g>
</svg>
