<?xml version="1.0" encoding="utf-8"?>
<!-- Generator: Adobe Illustrator 28.0.0, SVG Export Plug-In . SVG Version: 6.00 Build 0)  -->
<svg version="1.1" id="Layer_1" xmlns="http://www.w3.org/2000/svg" xmlns:xlink="http://www.w3.org/1999/xlink" x="0px" y="0px"
	 viewBox="0 0 800 250" style="enable-background:new 0 0 800 250;" xml:space="preserve">
<style type="text/css">
	.st0{fill:url(#SVGID_1_);}
	.st1{fill:#D15E59;}
	.st2{fill:url(#SVGID_00000095327482663944520350000015214215318436050575_);}
	.st3{fill:#0C1220;}
</style>
<g>
	
		<linearGradient id="SVGID_1_" gradientUnits="userSpaceOnUse" x1="683.4104" y1="127.3176" x2="464.6966" y2="127.3176" gradientTransform="matrix(1 0 0 -1 0 252)">
		<stop  offset="0" style="stop-color:#F7B135"/>
		<stop  offset="1" style="stop-color:#E62577"/>
	</linearGradient>
	<path class="st0" d="M682.3,113.4L559.7,42.7c-22.4-12.9-44.2-14.6-61.4-4.7c-17.2,9.9-26.6,29.6-26.6,55.5v62.3
		c0,26,9.5,45.7,26.6,55.6c7.4,4.2,15.6,6.4,24.3,6.4c11.5,0,24-3.7,36.7-11l61.8-35.7l-25.8-14.9l-48.9,28.2
		c-13.7,7.9-26.5,9.6-35.2,4.6c-8.7-5-13.7-17.2-13.7-33.3V93.5c0-16,5-28.1,13.7-33.1c8.7-5,21.7-3.3,35.5,4.7l122.6,70.8
		c6.2,3.6,14.1,1.4,17.6-4.7C690.6,124.9,688.5,117,682.3,113.4z"/>
	<polygon class="st1" points="595.3,156.2 569.5,171.1 595.3,186 621.2,171.1 	"/>
	
		<linearGradient id="SVGID_00000110452678883964208480000005859851340310405258_" gradientUnits="userSpaceOnUse" x1="772.3879" y1="127.4317" x2="554.2296" y2="127.4317" gradientTransform="matrix(1 0 0 -1 0 252)">
		<stop  offset="0" style="stop-color:#F7B135"/>
		<stop  offset="1" style="stop-color:#E62577"/>
	</linearGradient>
	<path style="fill:url(#SVGID_00000110452678883964208480000005859851340310405258_);" d="M744,37.8c-17.1-9.9-38.7-8.2-61,4.6
		l-61.8,35.7L647,93.1l48.9-28.2c13.7-7.9,26.5-9.6,35.2-4.6c8.7,5,13.7,17.2,13.7,33.3v62.3c0,16-5,28.1-13.7,33.1
		c-8.7,5-21.7,3.3-35.5-4.7L573,113.4c-6.2-3.6-14.1-1.4-17.6,4.7c-3.6,6.2-1.5,14.1,4.7,17.6l122.6,70.8
		c12.8,7.4,25.3,11.1,37,11.1c8.8,0,17-2.1,24.4-6.4c17.2-9.9,26.6-29.6,26.6-55.5V93.5C770.6,67.5,761.1,47.8,744,37.8z"/>
	<polygon class="st1" points="672.8,78.1 647,63.2 621.2,78.1 647,93.1 	"/>
</g>
<g>
	<g>
		<g>
			<path class="st3" d="M119.9,48.3v88.1h-16.7L59.3,82.9v53.5H39.1V48.3H56l43.8,53.5V48.3H119.9z"/>
			<path class="st3" d="M205.3,108.1h-51.2c1.9,8.4,9.1,13.6,19.4,13.6c7.2,0,12.3-2.1,17-6.5l10.4,11.3
				c-6.3,7.2-15.7,10.9-27.9,10.9c-23.4,0-38.6-14.7-38.6-34.8c0-20.2,15.5-34.8,36.1-34.8c19.9,0,35.2,13.3,35.2,35.1
				C205.7,104.3,205.4,106.4,205.3,108.1z M153.9,96.6h33.3c-1.4-8.6-7.8-14.1-16.6-14.1C161.7,82.5,155.2,87.9,153.9,96.6z"/>
			<path class="st3" d="M259.9,136.4l-14.8-20.8l-15.4,20.8h-21.4l26-34.1l-25.2-33.6h22l14.3,19.8l14.7-19.8h20.9L256,101.8
				l26.2,34.6H259.9z"/>
			<path class="st3" d="M358.7,68.7v67.7H340v-8.1c-5.2,5.9-12.7,9.1-21,9.1c-17,0-28.9-9.6-28.9-30.4V68.7h19.6V104
				c0,11.3,5,16.3,13.7,16.3c9.1,0,15.6-5.8,15.6-18.2V68.7H358.7z"/>
			<path class="st3" d="M370.4,130.1l6.5-14.1c6,3.9,15.2,6.5,23.5,6.5c9.1,0,12.5-2.4,12.5-6.2c0-11.1-40.9,0.2-40.9-26.8
				c0-12.8,11.6-21.9,31.3-21.9c9.3,0,19.6,2.1,26,5.9l-6.5,14c-6.7-3.8-13.3-5-19.5-5c-8.8,0-12.6,2.8-12.6,6.3
				c0,11.6,40.9,0.4,40.9,27.1c0,12.6-11.7,21.5-32,21.5C388.2,137.4,376.6,134.2,370.4,130.1z"/>
		</g>
		<g>
			<path class="st3" d="M50.9,166.5H39.6v-6.6h30.6v6.6H59V195h-8.1L50.9,166.5L50.9,166.5z"/>
			<path class="st3" d="M107.6,183.7H87.2c0.8,3.4,3.6,5.4,7.7,5.4c2.9,0,4.9-0.9,6.8-2.6l4.2,4.5c-2.5,2.9-6.3,4.4-11.1,4.4
				c-9.3,0-15.4-5.9-15.4-13.9c0-8.1,6.2-13.9,14.4-13.9c7.9,0,14,5.3,14,14C107.8,182.1,107.7,183,107.6,183.7z M87.1,179.1h13.3
				c-0.6-3.4-3.1-5.6-6.6-5.6C90.2,173.5,87.6,175.6,87.1,179.1z"/>
			<path class="st3" d="M121,181.4c0-8.1,6.3-13.9,15-13.9c5.7,0,10.1,2.5,12.1,6.9l-6.1,3.3c-1.4-2.6-3.6-3.7-6.1-3.7
				c-4,0-7.1,2.8-7.1,7.5s3.1,7.5,7.1,7.5c2.5,0,4.6-1.1,6.1-3.7l6.1,3.3c-2,4.3-6.4,6.8-12.1,6.8C127.3,195.3,121,189.6,121,181.4z
				"/>
			<path class="st3" d="M190.1,179.5v15.4h-7.8v-14.2c0-4.4-2-6.4-5.5-6.4c-3.8,0-6.5,2.3-6.5,7.3v13.3h-7.8v-37.2h7.8v13
				c2.1-2.1,5.1-3.2,8.6-3.2C185.2,167.6,190.1,171.3,190.1,179.5z"/>
			<path class="st3" d="M234.8,179.5v15.4h-7.8v-14.2c0-4.4-2-6.4-5.5-6.4c-3.8,0-6.5,2.3-6.5,7.3v13.3h-7.8v-27h7.5v3.2
				c2.1-2.3,5.3-3.6,8.9-3.6C229.9,167.6,234.8,171.3,234.8,179.5z"/>
			<path class="st3" d="M250.2,181.4c0-8.1,6.3-13.9,14.9-13.9s14.8,5.8,14.8,13.9c0,8.1-6.2,13.9-14.8,13.9
				S250.2,189.6,250.2,181.4z M271.9,181.4c0-4.7-3-7.5-6.9-7.5s-6.9,2.8-6.9,7.5c0,4.7,3,7.5,6.9,7.5S271.9,186.1,271.9,181.4z"/>
			<path class="st3" d="M295.1,157.7h7.8v37.2h-7.8V157.7z"/>
			<path class="st3" d="M318.2,181.4c0-8.1,6.3-13.9,14.9-13.9s14.8,5.8,14.8,13.9c0,8.1-6.2,13.9-14.8,13.9
				S318.2,189.6,318.2,181.4z M339.9,181.4c0-4.7-3-7.5-6.9-7.5s-6.9,2.8-6.9,7.5c0,4.7,3,7.5,6.9,7.5S339.9,186.1,339.9,181.4z"/>
			<path class="st3" d="M390.9,168v22.5c0,10-5.4,14.6-15.1,14.6c-5.1,0-10.1-1.2-13.2-3.7l3.1-5.6c2.3,1.9,6.1,3.1,9.5,3.1
				c5.5,0,7.9-2.5,7.9-7.4v-1.1c-2.1,2.3-5,3.4-8.5,3.4c-7.5,0-13.5-5.2-13.5-13s6-13,13.5-13c3.8,0,6.9,1.2,8.9,3.9V168L390.9,168
				L390.9,168z M383.2,180.6c0-4-3-6.6-7.1-6.6s-7.1,2.7-7.1,6.6c0,4,3,6.6,7.1,6.6S383.2,184.6,383.2,180.6z"/>
			<path class="st3" d="M435,168l-12.2,28.6c-2.6,6.5-6.3,8.5-11.2,8.5c-2.8,0-5.8-0.9-7.5-2.5l2.9-5.6c1.2,1.1,2.9,1.7,4.4,1.7
				c2.2,0,3.4-0.9,4.4-3.4l0.1-0.2L404.2,168h8.1l7.6,18.3l7.6-18.3L435,168L435,168z"/>
		</g>
	</g>
</g>
</svg>
