<?xml version="1.0" encoding="utf-8"?>
<!-- Generator: Adobe Illustrator 28.0.0, SVG Export Plug-In . SVG Version: 6.00 Build 0)  -->
<svg version="1.1" id="Layer_1" xmlns="http://www.w3.org/2000/svg" xmlns:xlink="http://www.w3.org/1999/xlink" x="0px" y="0px"
	 viewBox="0 0 800 250" style="enable-background:new 0 0 800 250;" xml:space="preserve">
<style type="text/css">
	.st0{fill:url(#SVGID_1_);}
	.st1{fill:#D15E59;}
	.st2{fill:url(#SVGID_00000165193756114152870900000018265126034478916498_);}
	.st3{fill:#FFFFFF;}
</style>
<g>
	<g>
		<linearGradient id="SVGID_1_" gradientUnits="userSpaceOnUse" x1="683.4104" y1="124.6786" x2="464.6966" y2="124.6786">
			<stop  offset="0" style="stop-color:#F7B135"/>
			<stop  offset="1" style="stop-color:#E62577"/>
		</linearGradient>
		<path class="st0" d="M682.31,113.44L559.73,42.67c-22.42-12.94-44.21-14.61-61.37-4.7c-17.16,9.91-26.61,29.62-26.61,55.5v62.32
			c0,25.96,9.46,45.72,26.63,55.63c7.36,4.25,15.57,6.36,24.31,6.36c11.54,0,24.02-3.68,36.68-11l61.79-35.68l-25.83-14.91
			l-48.88,28.22c-13.72,7.92-26.54,9.61-35.16,4.63c-8.72-5.03-13.72-17.16-13.72-33.26V93.46c0-16.03,4.99-28.1,13.69-33.13
			c8.7-5.02,21.66-3.31,35.54,4.7l122.57,70.77c6.18,3.57,14.08,1.45,17.64-4.73C690.6,124.9,688.49,117,682.31,113.44z"/>
		<polygon class="st1" points="595.34,156.19 569.51,171.1 595.34,186.02 621.18,171.1 		"/>
		
			<linearGradient id="SVGID_00000019667067786719947060000007550711432706335150_" gradientUnits="userSpaceOnUse" x1="772.3879" y1="124.5667" x2="554.2296" y2="124.5667">
			<stop  offset="0" style="stop-color:#F7B135"/>
			<stop  offset="1" style="stop-color:#E62577"/>
		</linearGradient>
		<path style="fill:url(#SVGID_00000019667067786719947060000007550711432706335150_);" d="M743.96,37.83
			c-17.08-9.86-38.74-8.22-60.99,4.63l-61.79,35.68l25.83,14.91l48.88-28.22c13.72-7.92,26.54-9.61,35.16-4.63
			c8.72,5.03,13.72,17.16,13.72,33.26v62.32c0,16.03-4.99,28.1-13.69,33.13c-8.7,5.02-21.66,3.31-35.54-4.7l-122.58-70.77
			c-6.18-3.57-14.08-1.45-17.64,4.73c-3.57,6.18-1.45,14.08,4.73,17.64l122.58,70.77c12.77,7.37,25.34,11.09,36.96,11.09
			c8.78,0,17.02-2.12,24.41-6.38c17.16-9.91,26.61-29.62,26.61-55.5V93.46C770.59,67.5,761.14,47.75,743.96,37.83z"/>
		<polygon class="st1" points="672.84,78.14 647.01,63.23 621.18,78.14 647.01,93.06 		"/>
	</g>
	<g>
		<g>
			<g>
				<path class="st3" d="M119.89,48.29v88.06h-16.73l-43.9-53.46v53.46H39.13V48.29h16.86l43.78,53.46V48.29H119.89z"/>
				<path class="st3" d="M205.31,108.05h-51.2c1.89,8.43,9.06,13.59,19.37,13.59c7.17,0,12.33-2.14,16.98-6.54l10.44,11.32
					c-6.29,7.17-15.72,10.94-27.93,10.94c-23.4,0-38.62-14.72-38.62-34.84c0-20.25,15.47-34.84,36.1-34.84
					c19.88,0,35.22,13.33,35.22,35.1C205.68,104.27,205.43,106.41,205.31,108.05z M153.86,96.6h33.34
					c-1.38-8.55-7.8-14.09-16.6-14.09C161.66,82.51,155.24,87.92,153.86,96.6z"/>
				<path class="st3" d="M259.9,136.35l-14.84-20.76l-15.35,20.76h-21.38l26.04-34.09l-25.16-33.59h22.01l14.34,19.75l14.72-19.75
					h20.88L256,101.76l26.17,34.59H259.9z"/>
				<path class="st3" d="M358.66,68.67v67.68h-18.62v-8.05c-5.16,5.91-12.71,9.06-21.01,9.06c-16.98,0-28.93-9.56-28.93-30.44V68.67
					h19.62v35.35c0,11.32,5.03,16.35,13.71,16.35c9.06,0,15.6-5.79,15.6-18.24V68.67H358.66z"/>
				<path class="st3" d="M370.36,130.06l6.54-14.09c6.04,3.9,15.22,6.54,23.52,6.54c9.06,0,12.45-2.39,12.45-6.16
					c0-11.07-40.88,0.25-40.88-26.79c0-12.83,11.57-21.89,31.32-21.89c9.31,0,19.62,2.14,26.04,5.91l-6.54,13.96
					c-6.67-3.77-13.33-5.03-19.5-5.03c-8.81,0-12.58,2.77-12.58,6.29c0,11.57,40.88,0.38,40.88,27.05
					c0,12.58-11.7,21.51-31.95,21.51C388.22,137.36,376.65,134.21,370.36,130.06z"/>
			</g>
			<g>
				<path class="st3" d="M50.86,166.46H39.63v-6.62h30.59v6.62H58.99v28.49h-8.12V166.46z"/>
				<path class="st3" d="M107.6,183.66H87.18c0.75,3.36,3.61,5.42,7.72,5.42c2.86,0,4.92-0.85,6.77-2.61l4.16,4.51
					c-2.51,2.86-6.27,4.36-11.13,4.36c-9.33,0-15.4-5.87-15.4-13.89c0-8.08,6.17-13.89,14.39-13.89c7.92,0,14.04,5.32,14.04,13.99
					C107.75,182.15,107.65,183.01,107.6,183.66z M87.08,179.09h13.29c-0.55-3.41-3.11-5.62-6.62-5.62
					C90.19,173.48,87.63,175.63,87.08,179.09z"/>
				<path class="st3" d="M120.99,181.45c0-8.12,6.27-13.89,15.05-13.89c5.67,0,10.13,2.46,12.09,6.87l-6.07,3.26
					c-1.45-2.56-3.61-3.71-6.07-3.71c-3.96,0-7.07,2.76-7.07,7.47c0,4.71,3.11,7.47,7.07,7.47c2.46,0,4.61-1.1,6.07-3.71l6.07,3.31
					c-1.96,4.31-6.42,6.82-12.09,6.82C127.26,195.34,120.99,189.58,120.99,181.45z"/>
				<path class="st3" d="M190.06,179.5v15.45h-7.82V180.7c0-4.36-2.01-6.37-5.47-6.37c-3.76,0-6.47,2.31-6.47,7.27v13.34h-7.82
					v-37.22h7.82v13.04c2.11-2.11,5.12-3.21,8.58-3.21C185.25,167.56,190.06,171.27,190.06,179.5z"/>
				<path class="st3" d="M234.76,179.5v15.45h-7.82V180.7c0-4.36-2.01-6.37-5.47-6.37c-3.76,0-6.47,2.31-6.47,7.27v13.34h-7.82
					v-26.98h7.47v3.16c2.11-2.31,5.27-3.56,8.93-3.56C229.94,167.56,234.76,171.27,234.76,179.5z"/>
				<path class="st3" d="M250.16,181.45c0-8.12,6.27-13.89,14.85-13.89s14.8,5.77,14.8,13.89c0,8.13-6.22,13.89-14.8,13.89
					S250.16,189.58,250.16,181.45z M271.88,181.45c0-4.66-2.96-7.47-6.87-7.47s-6.92,2.81-6.92,7.47c0,4.67,3.01,7.47,6.92,7.47
					S271.88,186.12,271.88,181.45z"/>
				<path class="st3" d="M295.06,157.73h7.82v37.22h-7.82V157.73z"/>
				<path class="st3" d="M318.18,181.45c0-8.12,6.27-13.89,14.85-13.89s14.8,5.77,14.8,13.89c0,8.13-6.22,13.89-14.8,13.89
					S318.18,189.58,318.18,181.45z M339.9,181.45c0-4.66-2.96-7.47-6.87-7.47s-6.92,2.81-6.92,7.47c0,4.67,3.01,7.47,6.92,7.47
					S339.9,186.12,339.9,181.45z"/>
				<path class="st3" d="M390.91,167.96v22.47c0,10.03-5.42,14.65-15.15,14.65c-5.12,0-10.08-1.25-13.24-3.71l3.11-5.62
					c2.31,1.86,6.07,3.06,9.53,3.06c5.52,0,7.92-2.51,7.92-7.37v-1.15c-2.06,2.26-5.02,3.36-8.53,3.36
					c-7.47,0-13.49-5.17-13.49-13.04c0-7.87,6.02-13.04,13.49-13.04c3.76,0,6.87,1.25,8.93,3.86v-3.46H390.91z M383.19,180.6
					c0-3.96-2.96-6.62-7.07-6.62s-7.12,2.66-7.12,6.62c0,3.96,3.01,6.62,7.12,6.62S383.19,184.56,383.19,180.6z"/>
				<path class="st3" d="M435.01,167.96l-12.19,28.64c-2.61,6.52-6.32,8.48-11.18,8.48c-2.76,0-5.77-0.9-7.52-2.46l2.86-5.57
					c1.2,1.05,2.86,1.71,4.41,1.71c2.16,0,3.36-0.95,4.41-3.36l0.1-0.25l-11.69-27.18h8.08l7.57,18.31l7.62-18.31H435.01z"/>
			</g>
		</g>
	</g>
</g>
</svg>
