<?xml version="1.0" encoding="utf-8"?>
<!-- Generator: Adobe Illustrator 28.0.0, SVG Export Plug-In . SVG Version: 6.00 Build 0)  -->
<svg version="1.1" id="Layer_1" xmlns="http://www.w3.org/2000/svg" xmlns:xlink="http://www.w3.org/1999/xlink" x="0px" y="0px"
	 viewBox="0 0 1000 1000" style="enable-background:new 0 0 1000 1000;" xml:space="preserve">
<style type="text/css">
	.st0{fill:url(#SVGID_1_);}
	.st1{fill:#D15E59;}
	.st2{fill:url(#SVGID_00000136402940284689304130000015642303330104307362_);}
	.st3{fill:#FFFFFF;}
	
		.st4{clip-path:url(#SVGID_00000173876073994781495080000011808775961467652764_);fill:url(#SVGID_00000176755028130932835330000004796907391767926457_);}
	
		.st5{clip-path:url(#SVGID_00000069375107765809603340000006759055052618050699_);fill:url(#SVGID_00000078757781578607492500000005629240667196939658_);}
	
		.st6{clip-path:url(#SVGID_00000026127970295623404140000007695741034371005852_);fill:url(#SVGID_00000134960535305885382630000001482880923930881437_);}
	
		.st7{clip-path:url(#SVGID_00000176025861963003397810000009805313167013907603_);fill:url(#SVGID_00000144336949124347639850000009916210687220784547_);}
	
		.st8{clip-path:url(#SVGID_00000151529777738693229510000016380286433662453647_);fill:url(#SVGID_00000167374459195997291640000007311757039821659566_);}
	
		.st9{clip-path:url(#SVGID_00000106131671034913729390000004359558987838076083_);fill:url(#SVGID_00000008133866548408856120000009761974703252405930_);}
	
		.st10{clip-path:url(#SVGID_00000051354941633717593350000000811703365943838338_);fill:url(#SVGID_00000094590829839588495670000010595224670222618520_);}
	
		.st11{clip-path:url(#SVGID_00000173160144237145548880000015328275619036189115_);fill:url(#SVGID_00000181076258188724499860000015936713119064252306_);}
	
		.st12{clip-path:url(#SVGID_00000164489294555715784970000006258195551706355616_);fill:url(#SVGID_00000013159927924274266190000002531244483270837665_);}
	
		.st13{clip-path:url(#SVGID_00000071521040561335100540000012278172532076179370_);fill:url(#SVGID_00000071527717574880413360000003988479448937598870_);}
</style>
<g>
	<g>
		<linearGradient id="SVGID_1_" gradientUnits="userSpaceOnUse" x1="829.3856" y1="500.056" x2="610.6718" y2="500.056">
			<stop  offset="0" style="stop-color:#F7B135"/>
			<stop  offset="1" style="stop-color:#E62577"/>
		</linearGradient>
		<path class="st0" d="M828.28,488.81l-122.57-70.77c-22.42-12.94-44.21-14.61-61.37-4.7c-17.16,9.91-26.61,29.62-26.61,55.5v62.32
			c0,25.96,9.46,45.72,26.63,55.63c7.36,4.25,15.57,6.36,24.31,6.36c11.54,0,24.02-3.68,36.68-11l61.79-35.68l-25.83-14.91
			l-48.88,28.22c-13.72,7.92-26.54,9.61-35.16,4.63c-8.72-5.03-13.72-17.16-13.72-33.26v-62.32c0-16.03,4.99-28.1,13.69-33.13
			c8.7-5.02,21.66-3.31,35.54,4.7l122.57,70.77c6.18,3.57,14.08,1.45,17.64-4.73C836.58,500.28,834.46,492.38,828.28,488.81z"/>
		<polygon class="st1" points="741.32,531.57 715.49,546.48 741.32,561.4 767.15,546.48 		"/>
		
			<linearGradient id="SVGID_00000008871563617504932600000006668453728930265488_" gradientUnits="userSpaceOnUse" x1="918.3631" y1="499.9441" x2="700.2047" y2="499.9441">
			<stop  offset="0" style="stop-color:#F7B135"/>
			<stop  offset="1" style="stop-color:#E62577"/>
		</linearGradient>
		<path style="fill:url(#SVGID_00000008871563617504932600000006668453728930265488_);" d="M889.94,413.21
			c-17.08-9.86-38.74-8.22-60.99,4.63l-61.79,35.68l25.83,14.91l48.88-28.22c13.72-7.92,26.54-9.61,35.16-4.63
			c8.72,5.03,13.72,17.16,13.72,33.26v62.32c0,16.03-4.99,28.1-13.69,33.13c-8.7,5.02-21.66,3.31-35.54-4.7l-122.58-70.77
			c-6.18-3.57-14.08-1.45-17.64,4.73c-3.57,6.18-1.45,14.08,4.73,17.64l122.58,70.77c12.77,7.37,25.34,11.09,36.96,11.09
			c8.78,0,17.02-2.12,24.41-6.38c17.16-9.91,26.61-29.62,26.61-55.5v-62.32C916.57,442.88,907.11,423.12,889.94,413.21z"/>
		<polygon class="st1" points="818.81,453.52 792.98,438.6 767.15,453.52 792.98,468.43 		"/>
	</g>
	<polygon class="st3" points="179.42,518.64 83.43,430.82 83.43,579.99 115.34,579.99 115.34,501.57 211.33,588.9 211.33,439.97 
		179.42,439.97 	"/>
	<polygon class="st3" points="233.81,528.46 295.55,528.46 295.55,510.84 254.28,510.84 254.28,491.32 293.48,491.32 293.48,474.5 
		254.28,474.5 254.28,457.99 295.55,457.99 295.55,440.22 233.81,440.22 	"/>
	<path class="st3" d="M385.44,439.9c-6.82,0-13.24,3.26-17.21,8.8c-1.03,1.44-2.06,2.87-3.1,4.29c-3.12,4.29-6.27,8.65-9.44,13.09
		l-12.5-17.34c-4.01-5.56-10.45-8.85-17.3-8.85h-14.32L343,484.18l-31.42,44.28h25.24c3.07-4.44,6.19-8.78,9.36-13.01
		c3.17-4.23,6.35-8.57,9.52-13.01l18.73,26.03h25.23l-31.58-44.28l31.58-44.28H385.44z"/>
	<path class="st3" d="M466.48,496.56c0,2.22-0.45,4.31-1.35,6.27c-0.9,1.96-2.14,3.68-3.73,5.16c-1.59,1.48-3.41,2.65-5.48,3.49
		c-2.06,0.85-4.26,1.27-6.59,1.27c-2.44,0-4.68-0.42-6.75-1.27c-2.06-0.85-3.86-2.01-5.4-3.49c-1.54-1.48-2.75-3.2-3.65-5.16
		c-0.9-1.96-1.35-4.05-1.35-6.27v-55.71h-20.47v55.39c0,4.97,0.98,9.6,2.94,13.89c1.96,4.28,4.65,8.07,8.09,11.35
		c3.44,3.28,7.43,5.84,11.98,7.7c4.55,1.85,9.42,2.78,14.6,2.78c5.08,0,9.89-0.93,14.44-2.78c4.55-1.85,8.52-4.42,11.9-7.7
		c3.39-3.28,6.06-7.06,8.02-11.35c1.96-4.29,2.94-8.91,2.94-13.89v-55.39h-20.16V496.56z"/>
	<path class="st3" d="M574.4,491.08c-1.9-3.12-4.42-5.82-7.54-8.09c-3.12-2.27-6.72-4.21-10.79-5.79
		c-4.07-1.59-8.23-3.02-12.46-4.28c-1.9-0.53-3.73-1.08-5.48-1.67c-1.75-0.58-3.33-1.24-4.76-1.98c-1.43-0.74-2.57-1.59-3.41-2.54
		c-0.85-0.95-1.27-2.01-1.27-3.17c0-2.96,1.43-5.29,4.28-6.98c2.86-1.69,6.08-2.59,9.68-2.7c3.38,0,6.35,0.85,8.89,2.54
		c2.54,1.69,4.81,3.92,6.82,6.67l17.3-7.78c-2.75-5.61-7.04-10.26-12.86-13.97c-5.82-3.7-12.54-5.55-20.16-5.55
		c-4.97,0-9.55,0.74-13.73,2.22c-4.18,1.48-7.8,3.52-10.87,6.11c-3.07,2.59-5.48,5.63-7.22,9.13c-1.75,3.49-2.62,7.2-2.62,11.11
		c0,3.49,0.95,6.61,2.86,9.36c1.9,2.75,4.36,5.21,7.38,7.38c3.02,2.17,6.45,4.02,10.32,5.55c3.86,1.54,7.8,2.88,11.82,4.05
		c1.9,0.53,3.81,1.14,5.71,1.83c1.9,0.69,3.65,1.46,5.24,2.3c1.59,0.85,2.86,1.85,3.81,3.02c0.95,1.17,1.43,2.43,1.43,3.81
		c0,1.8-0.48,3.33-1.43,4.6c-0.95,1.27-2.2,2.33-3.73,3.17c-1.54,0.85-3.28,1.46-5.24,1.83c-1.96,0.37-3.94,0.56-5.95,0.56
		c-3.71-0.21-7.17-1.53-10.4-3.97c-3.23-2.43-5.74-5.13-7.54-8.09l-18.25,8.09c1.8,3.07,3.97,5.95,6.51,8.65
		c2.54,2.7,5.34,5.05,8.41,7.06c3.07,2.01,6.4,3.6,10,4.76c3.6,1.16,7.35,1.75,11.27,1.75c5.08,0,9.86-0.66,14.36-1.98
		c4.5-1.32,8.41-3.17,11.74-5.55c3.33-2.38,5.95-5.29,7.86-8.73c1.9-3.44,2.86-7.27,2.86-11.51
		C577.26,497.94,576.31,494.21,574.4,491.08z"/>
	<g>
		<defs>
			<path id="SVGID_00000164502319242824685410000002417010995514741944_" d="M261.27,563.31h-10.42v23.75h-6.93v-23.75h-10.37v-6.55
				h27.72V563.31z"/>
		</defs>
		<clipPath id="SVGID_00000102513368304093779560000011385385548324986753_">
			<use xlink:href="#SVGID_00000164502319242824685410000002417010995514741944_"  style="overflow:visible;"/>
		</clipPath>
		
			<linearGradient id="SVGID_00000174570995061007816040000012712769490899052724_" gradientUnits="userSpaceOnUse" x1="225.9536" y1="572.1326" x2="582.3556" y2="572.1326">
			<stop  offset="0" style="stop-color:#F07355"/>
			<stop  offset="1" style="stop-color:#E65BB0"/>
		</linearGradient>
		
			<rect x="225.95" y="548.19" style="clip-path:url(#SVGID_00000102513368304093779560000011385385548324986753_);fill:url(#SVGID_00000174570995061007816040000012712769490899052724_);" width="356.4" height="47.89"/>
	</g>
	<g>
		<defs>
			<path id="SVGID_00000137846452924390424380000011517552588619724714_" d="M275.29,563.21v5.59h13.27v5.7h-13.27v6.61h13.97v5.96
				h-20.9v-29.87h20.9v6.02H275.29z"/>
		</defs>
		<clipPath id="SVGID_00000139258613312155945320000005079802174339649444_">
			<use xlink:href="#SVGID_00000137846452924390424380000011517552588619724714_"  style="overflow:visible;"/>
		</clipPath>
		
			<linearGradient id="SVGID_00000034092028226239847940000015226562651753826698_" gradientUnits="userSpaceOnUse" x1="225.9536" y1="572.1326" x2="582.3556" y2="572.1326">
			<stop  offset="0" style="stop-color:#F07355"/>
			<stop  offset="1" style="stop-color:#E65BB0"/>
		</linearGradient>
		
			<rect x="225.95" y="548.19" style="clip-path:url(#SVGID_00000139258613312155945320000005079802174339649444_);fill:url(#SVGID_00000034092028226239847940000015226562651753826698_);" width="356.4" height="47.89"/>
	</g>
	<g>
		<defs>
			<path id="SVGID_00000131358118038134757970000011186771156451512510_" d="M326.7,579.16c-1.54,2.4-3.56,4.32-6.04,5.75
				c-2.49,1.43-5.18,2.15-8.09,2.15c-2.22,0-4.31-0.4-6.26-1.21c-1.95-0.81-3.65-1.91-5.1-3.3c-1.45-1.4-2.61-3.03-3.47-4.89
				c-0.86-1.86-1.29-3.87-1.29-6.02c0-2.11,0.43-4.11,1.29-5.99c0.86-1.88,2.01-3.52,3.47-4.92c1.45-1.4,3.15-2.5,5.1-3.3
				c1.95-0.81,4.04-1.21,6.26-1.21c2.9,0,5.6,0.73,8.09,2.18c2.49,1.45,4.5,3.36,6.04,5.72l-5.53,3.33
				c-0.97-1.47-2.2-2.65-3.71-3.55c-1.5-0.89-3.12-1.34-4.83-1.34c-1.29,0-2.51,0.24-3.65,0.72c-1.15,0.48-2.15,1.14-3.01,1.96
				c-0.86,0.82-1.54,1.78-2.04,2.87c-0.5,1.09-0.75,2.27-0.75,3.52c0,1.25,0.25,2.42,0.75,3.52c0.5,1.09,1.18,2.04,2.04,2.85
				c0.86,0.81,1.86,1.45,3.01,1.93c1.15,0.48,2.36,0.72,3.65,0.72c1.72,0,3.32-0.45,4.81-1.34c1.49-0.89,2.71-2.09,3.68-3.6
				L326.7,579.16z"/>
		</defs>
		<clipPath id="SVGID_00000103258368326734786740000005909962581149673145_">
			<use xlink:href="#SVGID_00000131358118038134757970000011186771156451512510_"  style="overflow:visible;"/>
		</clipPath>
		
			<linearGradient id="SVGID_00000062912645492720193580000014458055716118378385_" gradientUnits="userSpaceOnUse" x1="225.9536" y1="572.1326" x2="582.3556" y2="572.1326">
			<stop  offset="0" style="stop-color:#F07355"/>
			<stop  offset="1" style="stop-color:#E65BB0"/>
		</linearGradient>
		
			<rect x="225.95" y="548.19" style="clip-path:url(#SVGID_00000103258368326734786740000005909962581149673145_);fill:url(#SVGID_00000062912645492720193580000014458055716118378385_);" width="356.4" height="47.89"/>
	</g>
	<g>
		<defs>
			<path id="SVGID_00000015337215860350890010000017500694083912354484_" d="M361.03,557.19v29.87h-6.88v-12.57h-13.32v12.57h-6.82
				v-29.87h6.82v11.55h13.32v-11.55H361.03z"/>
		</defs>
		<clipPath id="SVGID_00000124149940977978556550000011305844192522006450_">
			<use xlink:href="#SVGID_00000015337215860350890010000017500694083912354484_"  style="overflow:visible;"/>
		</clipPath>
		
			<linearGradient id="SVGID_00000168090230675955348130000013107635079795989682_" gradientUnits="userSpaceOnUse" x1="225.9536" y1="572.1326" x2="582.3556" y2="572.1326">
			<stop  offset="0" style="stop-color:#F07355"/>
			<stop  offset="1" style="stop-color:#E65BB0"/>
		</linearGradient>
		
			<rect x="225.95" y="548.19" style="clip-path:url(#SVGID_00000124149940977978556550000011305844192522006450_);fill:url(#SVGID_00000168090230675955348130000013107635079795989682_);" width="356.4" height="47.89"/>
	</g>
	<g>
		<defs>
			<path id="SVGID_00000077313048364794000050000004585904896695946677_" d="M395.9,556.65v31.91l-20.58-18.75v16.82h-6.82v-31.91
				l20.52,18.8v-16.87H395.9z"/>
		</defs>
		<clipPath id="SVGID_00000085240123039625567560000018365206033107129985_">
			<use xlink:href="#SVGID_00000077313048364794000050000004585904896695946677_"  style="overflow:visible;"/>
		</clipPath>
		
			<linearGradient id="SVGID_00000175308050264133551520000003778694662841473665_" gradientUnits="userSpaceOnUse" x1="225.9536" y1="572.1326" x2="582.3556" y2="572.1326">
			<stop  offset="0" style="stop-color:#F07355"/>
			<stop  offset="1" style="stop-color:#E65BB0"/>
		</linearGradient>
		
			<rect x="225.95" y="548.19" style="clip-path:url(#SVGID_00000085240123039625567560000018365206033107129985_);fill:url(#SVGID_00000175308050264133551520000003778694662841473665_);" width="356.4" height="47.89"/>
	</g>
	<g>
		<defs>
			<path id="SVGID_00000043430079774399687400000008666965674597889447_" d="M436.73,571.64c0,2.18-0.43,4.24-1.29,6.18
				c-0.86,1.93-2.04,3.63-3.55,5.08c-1.5,1.45-3.27,2.6-5.29,3.44c-2.02,0.84-4.18,1.26-6.47,1.26c-2.33,0-4.5-0.42-6.53-1.26
				c-2.02-0.84-3.79-1.99-5.29-3.44c-1.5-1.45-2.69-3.14-3.57-5.08c-0.88-1.93-1.32-3.99-1.32-6.18c0-2.19,0.44-4.25,1.32-6.21
				c0.88-1.95,2.07-3.64,3.57-5.08c1.5-1.43,3.27-2.57,5.29-3.41c2.02-0.84,4.2-1.26,6.53-1.26c2.29,0,4.45,0.42,6.47,1.26
				c2.02,0.84,3.79,1.98,5.29,3.41c1.5,1.43,2.69,3.13,3.55,5.08C436.3,567.39,436.73,569.46,436.73,571.64z M429.91,571.64
				c0-1.29-0.25-2.51-0.75-3.65s-1.2-2.14-2.1-2.98c-0.9-0.84-1.93-1.5-3.12-1.99c-1.18-0.48-2.45-0.73-3.81-0.73
				c-1.4,0-2.7,0.24-3.9,0.73c-1.2,0.48-2.24,1.15-3.12,1.99c-0.88,0.84-1.58,1.83-2.1,2.98c-0.52,1.15-0.78,2.36-0.78,3.65
				c0,1.29,0.26,2.5,0.78,3.62c0.52,1.13,1.22,2.12,2.1,2.98c0.88,0.86,1.92,1.53,3.12,2.01c1.2,0.48,2.5,0.73,3.9,0.73
				c1.36,0,2.63-0.24,3.81-0.73c1.18-0.48,2.22-1.15,3.12-2.01c0.89-0.86,1.59-1.85,2.1-2.98
				C429.66,574.14,429.91,572.93,429.91,571.64z"/>
		</defs>
		<clipPath id="SVGID_00000122700335516655187390000016095129005208464531_">
			<use xlink:href="#SVGID_00000043430079774399687400000008666965674597889447_"  style="overflow:visible;"/>
		</clipPath>
		
			<linearGradient id="SVGID_00000135677717233813219240000009876666757891773574_" gradientUnits="userSpaceOnUse" x1="225.9536" y1="572.1326" x2="582.3556" y2="572.1326">
			<stop  offset="0" style="stop-color:#F07355"/>
			<stop  offset="1" style="stop-color:#E65BB0"/>
		</linearGradient>
		
			<rect x="225.95" y="548.19" style="clip-path:url(#SVGID_00000122700335516655187390000016095129005208464531_);fill:url(#SVGID_00000135677717233813219240000009876666757891773574_);" width="356.4" height="47.89"/>
	</g>
	<g>
		<defs>
			<path id="SVGID_00000077283876029685929110000013565134093259933104_" d="M467.19,581.04v6.02h-22.83v-29.87h6.88v23.85H467.19z"
				/>
		</defs>
		<clipPath id="SVGID_00000091697006437717953140000008868151636827276181_">
			<use xlink:href="#SVGID_00000077283876029685929110000013565134093259933104_"  style="overflow:visible;"/>
		</clipPath>
		
			<linearGradient id="SVGID_00000149373395628542434350000011902767060793544344_" gradientUnits="userSpaceOnUse" x1="225.9536" y1="572.1326" x2="582.3556" y2="572.1326">
			<stop  offset="0" style="stop-color:#F07355"/>
			<stop  offset="1" style="stop-color:#E65BB0"/>
		</linearGradient>
		
			<rect x="225.95" y="548.19" style="clip-path:url(#SVGID_00000091697006437717953140000008868151636827276181_);fill:url(#SVGID_00000149373395628542434350000011902767060793544344_);" width="356.4" height="47.89"/>
	</g>
	<g>
		<defs>
			<path id="SVGID_00000081611097047786258680000000462426365614138240_" d="M505.17,571.64c0,2.18-0.43,4.24-1.29,6.18
				c-0.86,1.93-2.04,3.63-3.55,5.08c-1.5,1.45-3.27,2.6-5.29,3.44c-2.02,0.84-4.18,1.26-6.47,1.26c-2.33,0-4.5-0.42-6.53-1.26
				c-2.02-0.84-3.79-1.99-5.29-3.44c-1.5-1.45-2.7-3.14-3.57-5.08c-0.88-1.93-1.32-3.99-1.32-6.18c0-2.19,0.44-4.25,1.32-6.21
				c0.88-1.95,2.07-3.64,3.57-5.08c1.5-1.43,3.27-2.57,5.29-3.41c2.02-0.84,4.2-1.26,6.53-1.26c2.29,0,4.45,0.42,6.47,1.26
				c2.02,0.84,3.79,1.98,5.29,3.41c1.5,1.43,2.69,3.13,3.55,5.08C504.74,567.39,505.17,569.46,505.17,571.64z M498.35,571.64
				c0-1.29-0.25-2.51-0.75-3.65c-0.5-1.15-1.2-2.14-2.1-2.98c-0.9-0.84-1.93-1.5-3.12-1.99c-1.18-0.48-2.45-0.73-3.81-0.73
				c-1.4,0-2.7,0.24-3.9,0.73c-1.2,0.48-2.24,1.15-3.12,1.99c-0.88,0.84-1.58,1.83-2.09,2.98c-0.52,1.15-0.78,2.36-0.78,3.65
				c0,1.29,0.26,2.5,0.78,3.62c0.52,1.13,1.22,2.12,2.09,2.98c0.88,0.86,1.92,1.53,3.12,2.01c1.2,0.48,2.5,0.73,3.9,0.73
				c1.36,0,2.63-0.24,3.81-0.73c1.18-0.48,2.22-1.15,3.12-2.01c0.89-0.86,1.59-1.85,2.1-2.98
				C498.1,574.14,498.35,572.93,498.35,571.64z"/>
		</defs>
		<clipPath id="SVGID_00000111888880996937097190000013130751617623906704_">
			<use xlink:href="#SVGID_00000081611097047786258680000000462426365614138240_"  style="overflow:visible;"/>
		</clipPath>
		
			<linearGradient id="SVGID_00000171707478758569318330000012432958900096220095_" gradientUnits="userSpaceOnUse" x1="225.9536" y1="572.1326" x2="582.3556" y2="572.1326">
			<stop  offset="0" style="stop-color:#F07355"/>
			<stop  offset="1" style="stop-color:#E65BB0"/>
		</linearGradient>
		
			<rect x="225.95" y="548.19" style="clip-path:url(#SVGID_00000111888880996937097190000013130751617623906704_);fill:url(#SVGID_00000171707478758569318330000012432958900096220095_);" width="356.4" height="47.89"/>
	</g>
	<g>
		<defs>
			<path id="SVGID_00000174592029994292199090000018334652409288801211_" d="M535.69,586.17c-1.76,0.63-3.6,1.05-5.53,1.26v0.05
				h-0.54c-0.11,0-0.22,0.01-0.35,0.03c-0.13,0.02-0.24,0.03-0.35,0.03h-0.97c-2.29,0-4.45-0.42-6.47-1.26
				c-2.02-0.84-3.79-1.99-5.29-3.44c-1.5-1.45-2.7-3.13-3.57-5.05c-0.88-1.92-1.32-3.97-1.32-6.15c0-2.19,0.44-4.24,1.32-6.18
				c0.88-1.93,2.07-3.62,3.57-5.05c1.5-1.43,3.27-2.57,5.29-3.41c2.02-0.84,4.18-1.26,6.47-1.26h0.97c0.14,0.04,0.34,0.06,0.59,0.06
				c0.07,0,0.14,0.01,0.21,0.03c0.07,0.02,0.13,0.03,0.16,0.03h0.43c0.46,0.07,0.93,0.15,1.4,0.24c0.46,0.09,0.95,0.23,1.45,0.4
				h-0.05c2.65,0.79,5.1,2.22,7.36,4.3l-4.89,4.4c-1-1-2.12-1.76-3.36-2.28c-1.24-0.52-2.53-0.79-3.9-0.83h-0.32
				c-1.36,0-2.64,0.25-3.84,0.75c-1.2,0.5-2.25,1.18-3.14,2.04c-0.9,0.86-1.59,1.87-2.09,3.03c-0.5,1.17-0.75,2.41-0.75,3.74
				s0.25,2.56,0.75,3.71c0.5,1.15,1.2,2.15,2.09,3.01c0.89,0.86,1.94,1.54,3.14,2.04c1.2,0.5,2.48,0.75,3.84,0.75h0.32
				c0.14,0,0.34,0,0.59,0c0.25,0,0.5-0.02,0.75-0.05c0.29-0.03,0.59-0.07,0.91-0.11c1.4-0.22,2.61-0.61,3.65-1.18v-4.35h-7.09v-5.75
				h13.43v13.97C539.07,584.71,537.44,585.55,535.69,586.17z"/>
		</defs>
		<clipPath id="SVGID_00000055688778275357956640000000897418899292459411_">
			<use xlink:href="#SVGID_00000174592029994292199090000018334652409288801211_"  style="overflow:visible;"/>
		</clipPath>
		
			<linearGradient id="SVGID_00000042004762333908081550000010587705343803981735_" gradientUnits="userSpaceOnUse" x1="225.9536" y1="572.1326" x2="582.3556" y2="572.1326">
			<stop  offset="0" style="stop-color:#F07355"/>
			<stop  offset="1" style="stop-color:#E65BB0"/>
		</linearGradient>
		
			<rect x="225.95" y="548.19" style="clip-path:url(#SVGID_00000055688778275357956640000000897418899292459411_);fill:url(#SVGID_00000042004762333908081550000010587705343803981735_);" width="356.4" height="47.89"/>
	</g>
	<g>
		<defs>
			<path id="SVGID_00000138538252425633067900000003361525663496242586_" d="M565.45,574.97v12.09h-7.09v-12.09
				c-0.86-1.4-1.75-2.85-2.66-4.35c-0.91-1.5-1.84-3.03-2.77-4.57c-0.93-1.54-1.85-3.05-2.77-4.54c-0.91-1.49-1.8-2.93-2.66-4.33
				h8.11l6.29,10.58l6.29-10.58h8.11L565.45,574.97z"/>
		</defs>
		<clipPath id="SVGID_00000179623843250721872120000013599984813025004162_">
			<use xlink:href="#SVGID_00000138538252425633067900000003361525663496242586_"  style="overflow:visible;"/>
		</clipPath>
		
			<linearGradient id="SVGID_00000054968832331274728450000008309399250808663467_" gradientUnits="userSpaceOnUse" x1="225.9536" y1="572.1326" x2="582.3556" y2="572.1326">
			<stop  offset="0" style="stop-color:#F07355"/>
			<stop  offset="1" style="stop-color:#E65BB0"/>
		</linearGradient>
		
			<rect x="225.95" y="548.19" style="clip-path:url(#SVGID_00000179623843250721872120000013599984813025004162_);fill:url(#SVGID_00000054968832331274728450000008309399250808663467_);" width="356.4" height="47.89"/>
	</g>
</g>
</svg>
