<?xml version="1.0" encoding="utf-8"?>
<!-- Generator: Adobe Illustrator 28.0.0, SVG Export Plug-In . SVG Version: 6.00 Build 0)  -->
<svg version="1.1" id="Layer_1" xmlns="http://www.w3.org/2000/svg" xmlns:xlink="http://www.w3.org/1999/xlink" x="0px" y="0px"
	 viewBox="0 0 800 250" style="enable-background:new 0 0 800 250;" xml:space="preserve">
<style type="text/css">
	.st0{fill:#FFFFFF;}
	.st1{fill:url(#SVGID_1_);}
	.st2{fill:#D15E59;}
	.st3{fill:url(#SVGID_00000009591985896962544820000009511211569666913715_);}
</style>
<g>
	<g>
		<path class="st0" d="M388.25,121.38c-3.87-3.39-5.81-8.61-5.81-15.66c0-3.61,0.49-7.36,1.46-11.23c0.97-3.87,2.35-7.76,4.13-11.66
			l0.69,0.69c-2.41,7-3.62,12.94-3.62,17.82c0,3.67,0.86,6.78,2.58,9.34c1.72,2.55,4.02,4.48,6.89,5.77
			c2.87,1.29,5.94,1.94,9.21,1.94c5.11,0,9.77-1.05,13.99-3.14c4.22-2.1,7.21-4.89,8.99-8.39c-1.15-4.93-1.97-8.32-2.45-10.16
			c-0.49-1.84-1.42-4.93-2.8-9.3l6.2-4.99l0.52,1.72c0.92,3.16,1.86,5.84,2.84,8.05c0.98,2.21,2.08,3.97,3.31,5.29
			c1.23,1.32,2.6,1.98,4.09,1.98c2.29,0,4.62-0.99,6.97-2.97c2.35-1.98,4.22-5.38,5.59-10.2l0.17-0.6l1.46-0.09
			c-0.34,2.35-0.8,4.53-1.38,6.54c2.18,2.87,4.56,4.99,7.14,6.37c2.58,1.38,5.48,2.21,8.69,2.5c0-1.66-0.33-3.15-0.99-4.48
			c-0.66-1.32-1.59-2.75-2.8-4.3c-0.98-1.21-1.71-2.27-2.19-3.18c-0.49-0.92-0.73-1.86-0.73-2.84c0-1.21,0.37-2.54,1.12-4
			c0.75-1.46,1.72-2.57,2.93-3.31c0.75,1.89,1.81,3.6,3.18,5.12c1.38,1.52,2.93,2.88,4.65,4.09l-2.5,2.84
			c0.34,5.91-0.46,10.17-2.41,12.78c-1.95,2.61-4.33,3.92-7.14,3.92c-1.89,0-3.89-0.69-5.98-2.07c-2.1-1.38-4.09-3.36-5.98-5.94
			c-3.04,5.34-6.74,8-11.1,8c-3.39,0-6.14-1.66-8.26-4.99l-2.41,12.22c-2.87,3.79-6.24,6.67-10.11,8.65
			c-3.87,1.98-8.33,2.97-13.38,2.97C397.04,126.46,392.12,124.77,388.25,121.38z"/>
		<path class="st0" d="M489.04,126.76c-1.29-0.72-2.8-1.85-4.52-3.4c-1.32-1.21-2.58-2.22-3.79-3.06c-1.21-0.83-2.64-1.56-4.3-2.19
			l0.26-1.12c5.22,2.07,9.35,3.1,12.39,3.1c4.13,0,7.7-0.82,10.71-2.45c3.01-1.64,5.44-3.64,7.27-6.02
			c1.83-2.38,3.21-4.81,4.13-7.27c-0.92-4.3-2.24-7.85-3.96-10.63c-1.72-2.78-3.56-4.78-5.51-5.98c-1.95-1.2-3.76-1.81-5.42-1.81
			c-1.43,0-2.78,0.42-4.04,1.25c-1.26,0.83-2.28,1.81-3.06,2.93c-0.77,1.12-1.16,2.11-1.16,2.97c0,1.49,0.75,2.78,2.24,3.87
			c1.49,1.09,3.87,1.64,7.14,1.64h17.56l0.77,1.21v5.77l-0.77,1.21h-17.64c-3.16,0-5.72-1.03-7.7-3.1
			c-1.98-2.07-2.97-4.56-2.97-7.49s0.56-5.77,1.68-8.52c1.12-2.75,2.68-5.01,4.69-6.76c2.01-1.75,4.3-2.62,6.89-2.62
			c2.64,0,4.92,1.11,6.84,3.31c1.92,2.21,3.38,5.09,4.39,8.65c1,3.56,1.51,7.35,1.51,11.36c0,4.48-0.86,8.74-2.58,12.78
			c-1.72,4.05-4.02,7.3-6.88,9.77c-2.87,2.47-5.97,3.7-9.3,3.7C491.95,127.84,490.33,127.48,489.04,126.76z"/>
		<path class="st0" d="M533.32,98.57l0.77,1.21v5.77l-0.77,1.21h-18.33l-0.77-1.21v-5.77l0.77-1.21H533.32z"/>
		<path class="st0" d="M551.65,98.57l0.77,1.21v5.77l-0.77,1.21h-18.33l-0.77-1.21v-5.77l0.77-1.21H551.65z"/>
		<path class="st0" d="M565.33,100.9c-1.55,1.95-3.41,3.41-5.59,4.39c-2.18,0.98-4.65,1.46-7.4,1.46h-0.69l-0.77-1.21v-5.77
			l0.77-1.21h1.21c3.38,0,6.05-0.26,8-0.77c1.95-0.52,3.57-1.55,4.86-3.1s2.28-3.93,2.97-7.14l1.46-0.17
			c-0.34,2.81-0.86,5.28-1.55,7.4c0.46,1.44,1.33,2.57,2.62,3.4c1.29,0.83,2.71,1.25,4.26,1.25c2.29,0,4.62-0.99,6.97-2.97
			s4.22-5.38,5.59-10.2l0.17-0.6l1.46-0.09c-0.4,2.93-1.15,6.02-2.24,9.29c0.4,1.61,1.15,2.83,2.24,3.66
			c1.09,0.83,2.41,1.25,3.96,1.25c2.35,0,4.09-0.59,5.21-1.76c1.12-1.18,1.88-2.85,2.28-5.03c0.4-2.18,0.77-5.65,1.12-10.41
			l1.63-0.09v2.75c0,3.56,0.37,6.31,1.12,8.26c0.75,1.95,1.86,3.29,3.36,4c1.49,0.72,3.5,1.08,6.03,1.08h0.34l0.77,1.21v5.77
			l-0.77,1.21h-0.86c-3.56,0-6.53-0.79-8.91-2.37c-2.38-1.58-3.57-4.32-3.57-8.22c-0.57,3.16-1.29,5.57-2.15,7.23
			c-0.86,1.66-1.84,2.78-2.93,3.36c-1.09,0.57-2.44,0.86-4.04,0.86c-1.72,0-3.39-0.45-4.99-1.33c-1.61-0.89-2.93-2.11-3.96-3.66
			c-2.64,3.33-5.71,4.99-9.21,4.99C570.04,107.61,567.11,105.37,565.33,100.9z"/>
		<path class="st0" d="M613.96,105.54v-5.77l0.77-1.21h31.93c17.56,0,31.21-0.82,40.97-2.45c9.75-1.64,14.63-4.23,14.63-7.79
			c-0.98-2.41-2.57-4.37-4.78-5.9c-2.21-1.52-4.81-2.62-7.79-3.31s-6.2-1.03-9.64-1.03c-5.51,0-13.28,0.37-23.32,1.12
			c-4.02,0.29-8.13,0.55-12.35,0.77c-4.22,0.23-7.88,0.34-10.97,0.34c-5.91,0-10.27-0.52-13.08-1.55c-2.81-1.03-4.22-2.78-4.22-5.25
			c0-3.84,2.02-7.82,6.07-11.92c4.05-4.1,8.85-7.52,14.42-10.24c5.56-2.72,10.33-4.09,14.29-4.09c2.98,0,4.65,0.79,4.99,2.37
			c0.34,1.58,0.09,3.66-0.77,6.24l-3.27-0.52c-3.9,0-8.39,0.76-13.47,2.28c-5.08,1.52-9.52,3.24-13.34,5.16
			c-3.82,1.92-5.72,3.34-5.72,4.26c0,0.75,0.5,1.51,1.51,2.28c1,0.77,2.4,1.42,4.17,1.94c1.78,0.52,3.73,0.77,5.85,0.77
			c6.66,0,12.31-0.11,16.96-0.34c4.65-0.23,10.53-0.6,17.64-1.12c6.48-0.57,11.65-0.86,15.49-0.86c4.48,0,8.46,0.9,11.96,2.71
			c3.5,1.81,6.21,4.02,8.13,6.63c1.92,2.61,2.88,5.06,2.88,7.36c0,1.72-0.39,3.69-1.16,5.9c-0.78,2.21-1.69,4.17-2.75,5.9
			c-1.06,1.72-1.97,2.75-2.71,3.1c-6.37,2.35-16.87,3.84-31.5,4.48c-14.63,0.63-31.33,0.95-50.09,0.95h-0.95L613.96,105.54z
			 M703,97.8c1.63,0.52,3.51,0.77,5.64,0.77h1.2l0.78,1.21v5.77l-0.78,1.21h-0.86c-2.7,0-5.19-0.53-7.49-1.59
			c-2.3-1.06-3.9-3.2-4.82-6.41l3.1-3.87C700.29,96.31,701.36,97.28,703,97.8z"/>
		<path class="st0" d="M709.07,105.54v-5.77l0.77-1.21h1.12c3.04,0,5.36-0.59,6.97-1.76c1.61-1.18,2.7-2.58,3.27-4.22
			c0.57-1.64,1.09-3.74,1.55-6.33l0.34-2.07l0.34-1.81l1.38-0.52l-0.17,2.58c-0.29,3.9,0.3,7.23,1.76,9.98
			c1.46,2.75,3.77,4.13,6.93,4.13l0.77,1.21v5.77l-0.77,1.21h-0.26c-1.55,0-3.04-0.17-4.48-0.52c-1.43-0.34-2.83-1.26-4.17-2.75
			c-1.35-1.49-2.28-3.79-2.8-6.89c-0.98,2.41-1.92,4.32-2.84,5.72c-0.92,1.41-2.08,2.5-3.49,3.27c-1.41,0.77-3.23,1.16-5.46,1.16
			L709.07,105.54z M711.82,117.34l5.08-5.08l5.08,5.08l-5.08,5.34L711.82,117.34z M720.43,117.34l5.08-5.08l5.08,5.08l-5.08,5.34
			L720.43,117.34z"/>
		<path class="st0" d="M732.56,105.54v-5.77l0.77-1.21h2.24c0.98,0,2.5-0.14,4.56-0.43c2.07-0.29,3.93-0.72,5.59-1.29
			c1.66-0.57,2.5-1.23,2.5-1.98c0-0.4-0.26-0.96-0.77-1.68c-0.52-0.72-1.35-1.68-2.5-2.88c-1.89-2.01-3.4-3.8-4.52-5.38
			c-1.12-1.58-1.68-3.08-1.68-4.52c0-1.55,0.43-2.78,1.29-3.7c0.86-0.92,2.15-1.95,3.87-3.1c0.75,2.01,1.82,3.73,3.23,5.16
			c1.41,1.43,3.08,2.87,5.04,4.3l-2.5,2.84c0.34,3.73,0.36,7.03,0.04,9.9c-0.32,2.87-1.59,5.41-3.83,7.62
			c-2.24,2.21-5.85,3.31-10.84,3.31h-1.72L732.56,105.54z M738.85,61.39l5.08-5.08l5.08,5.08l-5.08,5.34L738.85,61.39z"/>
		<path class="st0" d="M401.68,189.33c-0.9-0.26-1.67-0.83-2.31-1.73c-0.64-0.9-1.09-2.24-1.35-4.04c-0.22-1.24-0.44-2.89-0.66-4.94
			c-0.22-2.05-0.37-3.97-0.44-5.77c-2.27,0.4-4.69,1.12-7.25,2.14c-2.56,1.03-4.29,2.05-5.16,3.08c0.29,0.92,1.02,1.6,2.17,2.06
			c1.15,0.46,2.87,0.69,5.14,0.69c1.03,0,2.12-0.11,3.27-0.33c1.15-0.22,2.08-0.55,2.77-0.99l-1.65,4.83
			c-0.66,0.55-1.58,0.95-2.75,1.21c-1.17,0.26-2.27,0.38-3.3,0.38c-2.09,0-3.76-0.49-5.03-1.48c-1.26-0.99-1.9-2.36-1.9-4.12
			c0-0.73,0.26-1.63,0.77-2.69c0.51-1.06,0.95-1.78,1.32-2.14c1.17-1.36,2.88-2.69,5.14-4.01s4.39-2.31,6.4-2.97
			c0.07-0.99,0.25-1.85,0.52-2.58c0.28-0.73,0.71-1.39,1.29-1.98l2.2-2.14v17.42c0,1.46,0.11,2.56,0.33,3.3
			c0.22,0.73,0.61,1.25,1.18,1.54c0.57,0.29,1.44,0.44,2.61,0.44h0.05l0.49,0.77v3.68l-0.49,0.77h-0.05
			C403.69,189.71,402.58,189.59,401.68,189.33z M389.35,157.91l3.24-3.24l3.24,3.24l-3.24,3.41L389.35,157.91z M394.84,157.91
			l3.24-3.24l3.24,3.24l-3.24,3.41L394.84,157.91z"/>
		<path class="st0" d="M416.77,184.5l0.49,0.77v3.68l-0.49,0.77h-11.7l-0.49-0.77v-3.68l0.49-0.77H416.77z"/>
		<path class="st0" d="M428.47,184.5l0.49,0.77v3.68l-0.49,0.77h-11.7l-0.49-0.77v-3.68l0.49-0.77H428.47z"/>
		<path class="st0" d="M440.17,184.5l0.49,0.77v3.68l-0.49,0.77h-11.7l-0.49-0.77v-3.68l0.49-0.77H440.17z"/>
		<path class="st0" d="M451.87,184.5l0.49,0.77v3.68l-0.49,0.77h-11.7l-0.49-0.77v-3.68l0.49-0.77H451.87z"/>
		<path class="st0" d="M463.57,184.5l0.49,0.77v3.68l-0.49,0.77h-11.7l-0.49-0.77v-3.68l0.49-0.77H463.57z"/>
		<path class="st0" d="M463.08,188.94v-3.68l0.49-0.77h0.71c1.94,0,3.42-0.38,4.45-1.13c1.03-0.75,1.72-1.65,2.09-2.69
			c0.37-1.04,0.7-2.39,0.99-4.04l0.22-1.32l0.22-1.15l0.88-0.33l-0.11,1.65c-0.18,2.49,0.19,4.61,1.13,6.37
			c0.93,1.76,2.41,2.64,4.42,2.64l0.49,0.77v3.68l-0.49,0.77h-0.17c-0.99,0-1.94-0.11-2.86-0.33c-0.92-0.22-1.8-0.8-2.67-1.76
			c-0.86-0.95-1.46-2.42-1.79-4.39c-0.62,1.54-1.23,2.76-1.81,3.65c-0.59,0.9-1.33,1.59-2.23,2.09c-0.9,0.49-2.06,0.74-3.49,0.74
			L463.08,188.94z M464.84,196.47l3.24-3.24l3.24,3.24l-3.24,3.41L464.84,196.47z M470.33,196.47l3.24-3.24l3.24,3.24l-3.24,3.41
			L470.33,196.47z"/>
		<path class="st0" d="M478.08,188.94v-3.68l0.49-0.77h0.71c1.94,0,3.42-0.38,4.45-1.13c1.03-0.75,1.72-1.65,2.09-2.69
			c0.37-1.04,0.7-2.39,0.99-4.04l0.22-1.32l0.22-1.15l0.88-0.33l-0.11,1.65c-0.18,2.49,0.19,4.61,1.13,6.37
			c0.93,1.76,2.41,2.64,4.42,2.64l0.49,0.77v3.68l-0.49,0.77h-0.17c-0.99,0-1.94-0.11-2.86-0.33c-0.92-0.22-1.8-0.8-2.67-1.76
			c-0.86-0.95-1.46-2.42-1.79-4.39c-0.62,1.54-1.23,2.76-1.81,3.65c-0.59,0.9-1.33,1.59-2.23,2.09c-0.9,0.49-2.06,0.74-3.49,0.74
			L478.08,188.94z M483.08,166.31l3.24-3.24l3.24,3.24l-3.24,3.41L483.08,166.31z"/>
		<path class="st0" d="M493.07,188.94v-3.68l0.49-0.77h0.38c5.24,0,8.88-0.52,10.93-1.57c2.05-1.04,3.08-2.22,3.08-3.54
			c0-0.81-0.31-1.65-0.93-2.53c-0.62-0.88-1.45-1.61-2.47-2.2s-2.11-0.88-3.24-0.88c-1.14,0-2.12,0.29-2.97,0.88
			s-1.48,1.28-1.92,2.09c-0.44,0.81-0.66,1.52-0.66,2.14c0,0.66,0.5,1.43,1.48,2.31c0.99,0.88,2.57,1.65,4.75,2.31
			s4.94,0.99,8.27,0.99h0.22l0.49,0.77v3.68l-0.49,0.77h-0.22c-2.56,0-5.02-0.38-7.36-1.15c-2.34-0.77-4.27-1.97-5.77-3.6
			c-1.5-1.63-2.25-3.65-2.25-6.07c0-1.43,0.37-2.95,1.1-4.56c0.73-1.61,1.68-2.97,2.86-4.07c1.17-1.1,2.42-1.65,3.74-1.65
			c1.17,0,2.23,0.51,3.19,1.54c0.95,1.03,1.7,2.33,2.25,3.93c0.55,1.59,0.82,3.18,0.82,4.75c0,2.12-0.71,4.02-2.12,5.69
			c-1.41,1.67-3.26,2.95-5.55,3.85c-2.29,0.9-4.7,1.35-7.22,1.35h-0.38L493.07,188.94z M496.75,160.82l3.24-3.24l3.24,3.24
			l-3.24,3.41L496.75,160.82z M502.25,160.82l3.24-3.24l3.24,3.24l-3.24,3.41L502.25,160.82z"/>
		<path class="st0" d="M510,188.94v-3.68l0.49-0.77h0.71c1.94,0,3.42-0.38,4.45-1.13c1.03-0.75,1.72-1.65,2.09-2.69
			c0.37-1.04,0.7-2.39,0.99-4.04l0.22-1.32l0.22-1.15l0.88-0.33l-0.11,1.65c-0.18,2.49,0.19,4.61,1.13,6.37
			c0.93,1.76,2.41,2.64,4.42,2.64l0.49,0.77v3.68l-0.49,0.77h-0.17c-0.99,0-1.94-0.11-2.86-0.33c-0.92-0.22-1.8-0.8-2.67-1.76
			c-0.86-0.95-1.46-2.42-1.79-4.39c-0.62,1.54-1.23,2.76-1.81,3.65c-0.59,0.9-1.33,1.59-2.23,2.09c-0.9,0.49-2.06,0.74-3.49,0.74
			L510,188.94z M512.41,166.31l3.24-3.24l3.24,3.24l-3.24,3.41L512.41,166.31z M517.91,166.31l3.24-3.24l3.24,3.24l-3.24,3.41
			L517.91,166.31z"/>
		<path class="st0" d="M524.99,188.94v-3.68l0.49-0.77h0.33c1.9,0,3.36-0.09,4.37-0.28c1.01-0.18,1.73-0.62,2.17-1.32
			c-0.18-4.76-0.38-9.48-0.6-14.15s-0.48-8.71-0.77-12.11c-0.15-1.65-0.06-3.03,0.25-4.15c0.31-1.12,1.18-2.1,2.61-2.94l1.65-0.93
			c0,1.28,0.19,2.47,0.58,3.57c0.38,1.1,0.89,2.05,1.51,2.86l-1.98,5.16v21.92c0,1.61-0.31,2.98-0.93,4.09
			c-0.62,1.12-1.66,1.98-3.1,2.58c-1.45,0.6-3.36,0.91-5.74,0.91h-0.33L524.99,188.94z"/>
		<path class="st0" d="M545.98,178.53c-0.07-4.82-0.23-9.4-0.47-13.76c-0.24-4.36-0.45-7.07-0.63-8.13
			c-0.26-1.5-0.21-2.85,0.14-4.04c0.35-1.19,1.25-2.21,2.72-3.05l1.65-0.93c0,1.28,0.19,2.47,0.58,3.57
			c0.38,1.1,0.89,2.05,1.51,2.86l-2.2,5.16v16.32c0,2.49-0.3,4.84-0.91,7.06c-0.6,2.22-1.37,4.44-2.28,6.68h-0.38
			C545.96,187.26,546.05,183.35,545.98,178.53z"/>
		<path class="st0" d="M573.58,198.17c-2.29-2.09-3.43-5.31-3.43-9.67c0-1.79,0.21-3.64,0.63-5.55c0.42-1.9,1.03-4.07,1.84-6.48
			l0.88,0.49c-0.84,2.86-1.26,5.38-1.26,7.58c0,3.7,0.94,6.54,2.83,8.52c1.89,1.98,4.68,2.97,8.38,2.97c3.44,0,6.26-0.64,8.46-1.92
			c2.2-1.28,3.64-3.08,4.34-5.38c0.22-2.53,0.22-6.05,0-10.58c-0.22-4.52-0.53-8.94-0.93-13.24c-0.4-4.3-0.7-7.06-0.88-8.27
			c-0.26-1.5-0.21-2.85,0.14-4.04c0.35-1.19,1.25-2.21,2.72-3.05l1.65-0.93c0,1.28,0.19,2.47,0.58,3.57
			c0.38,1.1,0.89,2.05,1.51,2.86l-2.2,5.16v9.72c0,1.9,0.04,4.07,0.11,6.48c0.07,2.64,0.08,4.71,0.03,6.21
			c-0.05,1.5-0.29,3.14-0.71,4.92s-1.14,3.87-2.17,6.29c-1.61,2.56-3.38,4.45-5.3,5.66c-1.92,1.21-4.53,1.81-7.83,1.81
			C579,201.31,575.87,200.26,573.58,198.17z"/>
		<path class="st0" d="M612.92,202.49c-0.82-0.46-1.79-1.18-2.88-2.17c-0.84-0.77-1.65-1.42-2.42-1.95c-0.77-0.53-1.68-1-2.75-1.4
			l0.16-0.71c3.33,1.32,5.97,1.98,7.91,1.98c2.64,0,4.92-0.52,6.84-1.57c1.92-1.04,3.47-2.33,4.64-3.85
			c1.17-1.52,2.05-3.07,2.64-4.64c-0.59-2.75-1.43-5.01-2.53-6.79c-1.1-1.78-2.27-3.05-3.52-3.82c-1.25-0.77-2.4-1.15-3.46-1.15
			c-0.92,0-1.78,0.27-2.58,0.8c-0.81,0.53-1.46,1.15-1.95,1.87c-0.5,0.71-0.74,1.35-0.74,1.9c0,0.95,0.48,1.78,1.43,2.47
			c0.95,0.7,2.47,1.04,4.56,1.04h11.21l0.5,0.77v3.68l-0.5,0.77h-11.26c-2.01,0-3.65-0.66-4.92-1.98s-1.9-2.91-1.9-4.78
			c0-1.87,0.36-3.68,1.07-5.44s1.71-3.2,2.99-4.31c1.28-1.12,2.75-1.68,4.4-1.68c1.68,0,3.14,0.71,4.37,2.12
			c1.23,1.41,2.16,3.25,2.8,5.52c0.64,2.27,0.96,4.69,0.96,7.25c0,2.86-0.55,5.58-1.65,8.16s-2.56,4.66-4.4,6.24
			c-1.83,1.57-3.81,2.36-5.93,2.36C614.78,203.17,613.75,202.94,612.92,202.49z"/>
		<path class="st0" d="M641.19,184.5l0.49,0.77v3.68l-0.49,0.77h-11.7l-0.49-0.77v-3.68l0.49-0.77H641.19z"/>
		<path class="st0" d="M652.89,184.5l0.49,0.77v3.68l-0.49,0.77h-11.7l-0.49-0.77v-3.68l0.49-0.77H652.89z"/>
		<path class="st0" d="M664.59,184.5l0.49,0.77v3.68l-0.49,0.77h-11.7l-0.49-0.77v-3.68l0.49-0.77H664.59z"/>
		<path class="st0" d="M676.29,184.5l0.49,0.77v3.68l-0.49,0.77h-11.7l-0.49-0.77v-3.68l0.49-0.77H676.29z"/>
		<path class="st0" d="M683.65,184.52c-0.26,1.3-0.93,2.49-2.03,3.57c-1.1,1.08-2.77,1.62-5,1.62h-0.33l-0.49-0.77v-3.68l0.49-0.77
			h0.33c1.54,0,2.75-0.17,3.62-0.5c0.88-0.33,1.6-1.15,2.17-2.47c0.57-1.32,0.89-3.35,0.96-6.1l0.66,5.05
			C684.04,181.88,683.91,183.22,683.65,184.52z M685.63,186.36c-1.47-2.23-2.22-5.88-2.25-10.93c0-2.12,0-4.25,0-6.37
			c0-6.81-0.04-12-0.11-15.55l3.68-3.63v21.87c0,2.93,0.09,5.24,0.27,6.92c0.18,1.69,0.67,3.08,1.46,4.18
			c0.79,1.1,2.02,1.65,3.71,1.65l0.49,0.77v3.68l-0.49,0.77C689.35,189.71,687.1,188.6,685.63,186.36z"/>
		<path class="st0" d="M691.89,188.94v-3.68l0.49-0.77h0.05c1.94,0,3.72-0.17,5.33-0.5c1.61-0.33,3.04-0.74,4.29-1.24
			c1.25-0.5,2.73-1.16,4.45-2.01c1.68-0.8,3.12-1.45,4.31-1.92c1.19-0.48,2.5-0.88,3.93-1.21c-2.01-0.4-3.76-0.87-5.25-1.4
			c-1.48-0.53-3.1-1.22-4.86-2.06c-1.46-0.7-2.65-1.2-3.54-1.51c-0.9-0.31-1.82-0.47-2.77-0.47c-1.32,0-2.33,0.38-3.05,1.15
			c-0.71,0.77-1.07,1.87-1.07,3.3l-0.71,0.05c-0.15-3.48,0.23-5.96,1.13-7.44c0.9-1.48,2.3-2.22,4.2-2.22
			c1.32,0,2.68,0.26,4.09,0.77c1.41,0.51,3.2,1.28,5.36,2.31c2.78,1.28,5.03,2.18,6.73,2.69c1.7,0.51,3.34,0.53,4.92,0.05
			c0.04,1.28-0.08,2.26-0.36,2.94s-0.71,1.22-1.32,1.62c-0.6,0.4-1.55,0.84-2.83,1.32c-1.72,0.66-3.23,1.41-4.53,2.25
			c-1.3,0.84-2.76,1.91-4.37,3.19c-1.58,1.25-2.94,2.23-4.09,2.97c-1.15,0.73-2.55,1.35-4.2,1.84c-1.65,0.49-3.57,0.74-5.77,0.74
			h-0.05L691.89,188.94z M718.29,188.15c-1.63-1.04-2.89-2.41-3.79-4.09s-1.38-3.48-1.46-5.38l1.26-0.66
			c0.15,1.1,0.63,2.15,1.46,3.16c0.82,1.01,1.94,1.81,3.35,2.42c1.41,0.6,2.97,0.91,4.7,0.91h0.16l0.5,0.77v3.68l-0.5,0.77
			C721.82,189.71,719.92,189.19,718.29,188.15z"/>
		<path class="st0" d="M731.34,184.52c-0.26,1.3-0.93,2.49-2.03,3.57c-1.1,1.08-2.77,1.62-5,1.62h-0.33l-0.49-0.77v-3.68l0.49-0.77
			h0.33c1.54,0,2.75-0.17,3.62-0.5c0.88-0.33,1.6-1.15,2.17-2.47c0.57-1.32,0.89-3.35,0.96-6.1l0.66,5.05
			C731.72,181.88,731.59,183.22,731.34,184.52z M733.32,186.36c-1.47-2.23-2.22-5.88-2.25-10.93c0-2.12,0-4.25,0-6.37
			c0-6.81-0.04-12-0.11-15.55l3.68-3.63v21.87c0,2.93,0.09,5.24,0.27,6.92c0.18,1.69,0.67,3.08,1.46,4.18
			c0.79,1.1,2.02,1.65,3.71,1.65l0.49,0.77v3.68l-0.49,0.77C737.03,189.71,734.78,188.6,733.32,186.36z"/>
		<path class="st0" d="M739.58,188.94v-3.68l0.49-0.77h0.33c1.9,0,3.36-0.09,4.37-0.28c1.01-0.18,1.73-0.62,2.17-1.32
			c-0.18-4.76-0.38-9.48-0.6-14.15s-0.48-8.71-0.77-12.11c-0.15-1.65-0.06-3.03,0.25-4.15c0.31-1.12,1.18-2.1,2.61-2.94l1.65-0.93
			c0,1.28,0.19,2.47,0.58,3.57c0.38,1.1,0.89,2.05,1.51,2.86l-1.98,5.16v21.92c0,1.61-0.31,2.98-0.93,4.09
			c-0.62,1.12-1.66,1.98-3.1,2.58c-1.45,0.6-3.36,0.91-5.74,0.91h-0.33L739.58,188.94z"/>
	</g>
	<g>
		<linearGradient id="SVGID_1_" gradientUnits="userSpaceOnUse" x1="256.1986" y1="125.056" x2="37.4849" y2="125.056">
			<stop  offset="0" style="stop-color:#F7B135"/>
			<stop  offset="1" style="stop-color:#E62577"/>
		</linearGradient>
		<path class="st1" d="M255.1,113.81L132.52,43.05c-22.42-12.94-44.21-14.61-61.37-4.7c-17.16,9.91-26.61,29.62-26.61,55.5v62.32
			c0,25.96,9.46,45.72,26.63,55.63c7.36,4.25,15.57,6.36,24.31,6.36c11.54,0,24.02-3.68,36.68-11l61.79-35.68l-25.83-14.91
			l-48.88,28.22c-13.72,7.92-26.54,9.61-35.16,4.63c-8.72-5.03-13.72-17.16-13.72-33.26V93.84c0-16.03,4.99-28.1,13.69-33.13
			c8.7-5.02,21.66-3.31,35.54,4.7l122.57,70.77c6.18,3.57,14.08,1.45,17.64-4.73C263.39,125.28,261.28,117.38,255.1,113.81z"/>
		<polygon class="st2" points="168.13,156.57 142.3,171.48 168.13,186.4 193.96,171.48 		"/>
		
			<linearGradient id="SVGID_00000001649462980799008280000008893259956737085080_" gradientUnits="userSpaceOnUse" x1="345.1762" y1="124.9441" x2="127.0178" y2="124.9441">
			<stop  offset="0" style="stop-color:#F7B135"/>
			<stop  offset="1" style="stop-color:#E62577"/>
		</linearGradient>
		<path style="fill:url(#SVGID_00000001649462980799008280000008893259956737085080_);" d="M316.75,38.21
			c-17.08-9.86-38.74-8.22-60.99,4.63l-61.79,35.68l25.83,14.91l48.88-28.22c13.72-7.92,26.54-9.61,35.16-4.63
			c8.72,5.03,13.72,17.16,13.72,33.26v62.32c0,16.03-4.99,28.1-13.69,33.13c-8.7,5.02-21.66,3.31-35.54-4.7l-122.58-70.77
			c-6.18-3.57-14.08-1.45-17.64,4.73c-3.57,6.18-1.45,14.08,4.73,17.64l122.58,70.77c12.77,7.37,25.34,11.09,36.96,11.09
			c8.78,0,17.02-2.12,24.41-6.38c17.16-9.91,26.61-29.62,26.61-55.5V93.84C343.38,67.88,333.92,48.12,316.75,38.21z"/>
		<polygon class="st2" points="245.63,78.52 219.8,63.6 193.96,78.52 219.8,93.43 		"/>
	</g>
</g>
</svg>
